<svg width="30" height="31" viewBox="0 0 30 31" fill="none" xmlns="http://www.w3.org/2000/svg">
<path d="M15 11.5946C12.8496 11.5946 11.0947 13.3495 11.0947 15.4999C11.0947 17.6503 12.8496 19.4052 15 19.4052C17.1504 19.4052 18.9053 17.6503 18.9053 15.4999C18.9053 13.3495 17.1504 11.5946 15 11.5946ZM26.7129 15.4999C26.7129 13.8827 26.7276 12.2802 26.6367 10.6659C26.5459 8.79091 26.1182 7.12685 24.7471 5.75575C23.3731 4.38173 21.7119 3.95693 19.8369 3.86611C18.2197 3.77529 16.6172 3.78993 15.0029 3.78993C13.3858 3.78993 11.7832 3.77529 10.169 3.86611C8.29396 3.95693 6.6299 4.38466 5.25881 5.75575C3.88478 7.12978 3.45998 8.79091 3.36916 10.6659C3.27834 12.2831 3.29299 13.8856 3.29299 15.4999C3.29299 17.1142 3.27834 18.7196 3.36916 20.3339C3.45998 22.2089 3.88771 23.8729 5.25881 25.244C6.63283 26.6181 8.29396 27.0429 10.169 27.1337C11.7861 27.2245 13.3887 27.2099 15.0029 27.2099C16.6201 27.2099 18.2227 27.2245 19.8369 27.1337C21.7119 27.0429 23.376 26.6151 24.7471 25.244C26.1211 23.87 26.5459 22.2089 26.6367 20.3339C26.7305 18.7196 26.7129 17.1171 26.7129 15.4999ZM15 21.5087C11.6748 21.5087 8.99123 18.8251 8.99123 15.4999C8.99123 12.1747 11.6748 9.49111 15 9.49111C18.3252 9.49111 21.0088 12.1747 21.0088 15.4999C21.0088 18.8251 18.3252 21.5087 15 21.5087ZM21.2549 10.6483C20.4785 10.6483 19.8516 10.0214 19.8516 9.24501C19.8516 8.46865 20.4785 7.84169 21.2549 7.84169C22.0313 7.84169 22.6582 8.46865 22.6582 9.24501C22.6585 9.42936 22.6223 9.61195 22.5519 9.78231C22.4814 9.95268 22.3781 10.1075 22.2477 10.2378C22.1174 10.3682 21.9626 10.4715 21.7922 10.542C21.6218 10.6124 21.4393 10.6486 21.2549 10.6483Z" fill="#22333C"/>
</svg>
