<svg class="w-full" viewBox="0 0 1440 580" fill="none" xmlns="http://www.w3.org/2000/svg">
    <g opacity="0.2" clip-path="url(#clip0_1_1508)">
    <rect width="1440" height="578.87" transform="translate(0 0.53125)" fill="white" fill-opacity="0.5"/>
    <rect y="0.53125" width="1440" height="1440" fill="#22333C"/>
    <g opacity="0.7">
    <mask id="mask0_1_1508" style="mask-type:alpha" maskUnits="userSpaceOnUse" x="0" y="0" width="1440" height="1441">
    <rect y="0.53125" width="1440" height="1440" fill="url(#paint0_radial_1_1508)"/>
    </mask>
    <g mask="url(#mask0_1_1508)">
    <path d="M-76.1817 45.4468L3.88619 0.760288L83.9541 45.4468V134.808L3.88619 179.495L-76.1817 134.808V45.4468Z" stroke="white" stroke-width="0.4"/>
    <path d="M82.8839 45.4468L162.952 0.760288L243.02 45.4468V134.808L162.952 179.495L82.8839 134.808V45.4468Z" stroke="white" stroke-width="0.4"/>
    <path d="M241.954 45.4468L322.022 0.760288L402.09 45.4468V134.808L322.022 179.495L241.954 134.808V45.4468Z" stroke="white" stroke-width="0.4"/>
    <path d="M401.025 45.4468L481.092 0.760288L561.16 45.4468V134.808L481.092 179.495L401.025 134.808V45.4468Z" stroke="white" stroke-width="0.4"/>
    <path d="M560.09 45.4468L640.158 0.760288L720.226 45.4468V134.808L640.158 179.495L560.09 134.808V45.4468Z" stroke="white" stroke-width="0.4"/>
    <path d="M719.161 45.4468L799.228 0.760288L879.296 45.4468V134.808L799.228 179.495L719.161 134.808V45.4468Z" stroke="white" stroke-width="0.4"/>
    <path d="M878.226 45.4468L958.294 0.760288L1038.36 45.4468V134.808L958.294 179.495L878.226 134.808V45.4468Z" stroke="white" stroke-width="0.4"/>
    <path d="M1037.3 45.4468L1117.36 0.760288L1197.43 45.4468V134.808L1117.36 179.495L1037.3 134.808V45.4468Z" stroke="white" stroke-width="0.4"/>
    <path d="M1196.36 45.4468L1276.43 0.760288L1356.5 45.4468V134.808L1276.43 179.495L1196.36 134.808V45.4468Z" stroke="white" stroke-width="0.4"/>
    <path d="M1355.44 45.4468L1435.51 0.760288L1515.57 45.4468V134.808L1435.51 179.495L1355.44 134.808V45.4468Z" stroke="white" stroke-width="0.4"/>
    <path d="M-156.582 176.247L-76.5138 131.56L3.55406 176.247V265.608L-76.5138 310.295L-156.582 265.608V176.247Z" stroke="white" stroke-width="0.4"/>
    <path d="M2.48388 176.247L82.5518 131.56L162.62 176.247V265.608L82.5518 310.295L2.48388 265.608V176.247Z" stroke="white" stroke-width="0.4"/>
    <path d="M161.554 176.247L241.622 131.56L321.69 176.247V265.608L241.622 310.295L161.554 265.608V176.247Z" stroke="white" stroke-width="0.4"/>
    <path d="M320.625 176.247L400.692 131.56L480.76 176.247V265.608L400.692 310.295L320.625 265.608V176.247Z" stroke="white" stroke-width="0.4"/>
    <path d="M479.69 176.247L559.758 131.56L639.826 176.247V265.608L559.758 310.295L479.69 265.608V176.247Z" stroke="white" stroke-width="0.4"/>
    <path d="M638.761 176.247L718.828 131.56L798.896 176.247V265.608L718.828 310.295L638.761 265.608V176.247Z" stroke="white" stroke-width="0.4"/>
    <path d="M797.826 176.247L877.894 131.56L957.962 176.247V265.608L877.894 310.295L797.826 265.608V176.247Z" stroke="white" stroke-width="0.4"/>
    <path d="M956.896 176.247L1036.96 131.56L1117.03 176.247V265.608L1036.96 310.295L956.896 265.608V176.247Z" stroke="white" stroke-width="0.4"/>
    <path d="M1115.96 176.247L1196.03 131.56L1276.1 176.247V265.608L1196.03 310.295L1115.96 265.608V176.247Z" stroke="white" stroke-width="0.4"/>
    <path d="M1275.04 176.247L1355.11 131.56L1435.17 176.247V265.608L1355.11 310.295L1275.04 265.608V176.247Z" stroke="white" stroke-width="0.4"/>
    <path d="M-77.9161 307.047L2.15182 262.36L82.2197 307.047V396.408L2.15182 441.095L-77.9161 396.408V307.047Z" stroke="white" stroke-width="0.4"/>
    <path d="M81.1542 307.047L161.222 262.36L241.29 307.047V396.408L161.222 441.095L81.1542 396.408V307.047Z" stroke="white" stroke-width="0.4"/>
    <path d="M240.225 307.047L320.292 262.36L400.36 307.047V396.408L320.292 441.095L240.225 396.408V307.047Z" stroke="white" stroke-width="0.4"/>
    <path d="M399.29 307.047L479.358 262.36L559.426 307.047V396.408L479.358 441.095L399.29 396.408V307.047Z" stroke="white" stroke-width="0.4"/>
    <path d="M558.361 307.047L638.428 262.36L718.496 307.047V396.408L638.428 441.095L558.361 396.408V307.047Z" stroke="white" stroke-width="0.4"/>
    <path d="M717.426 307.047L797.494 262.36L877.562 307.047V396.408L797.494 441.095L717.426 396.408V307.047Z" stroke="white" stroke-width="0.4"/>
    <path d="M876.497 307.047L956.564 262.36L1036.63 307.047V396.408L956.564 441.095L876.497 396.408V307.047Z" stroke="white" stroke-width="0.4"/>
    <path d="M1035.56 307.047L1115.63 262.36L1195.7 307.047V396.408L1115.63 441.095L1035.56 396.408V307.047Z" stroke="white" stroke-width="0.4"/>
    <path d="M1194.64 307.047L1274.71 262.36L1354.77 307.047V396.408L1274.71 441.095L1194.64 396.408V307.047Z" stroke="white" stroke-width="0.4"/>
    <path d="M-158.316 437.847L-78.2482 393.16L1.81969 437.847V527.208L-78.2482 571.895L-158.316 527.208V437.847Z" stroke="white" stroke-width="0.4"/>
    <path d="M0.754207 437.847L80.8221 393.16L160.89 437.847V527.208L80.8221 571.895L0.754207 527.208V437.847Z" stroke="white" stroke-width="0.4"/>
    <path d="M159.825 437.847L239.893 393.16L319.96 437.847V527.208L239.893 571.895L159.825 527.208V437.847Z" stroke="white" stroke-width="0.4"/>
    <path d="M318.89 437.847L398.958 393.16L479.026 437.847V527.208L398.958 571.895L318.89 527.208V437.847Z" stroke="white" stroke-width="0.4"/>
    <path d="M477.961 437.847L558.028 393.16L638.096 437.847V527.208L558.028 571.895L477.961 527.208V437.847Z" stroke="white" stroke-width="0.4"/>
    <path d="M637.026 437.847L717.094 393.16L797.162 437.847V527.208L717.094 571.895L637.026 527.208V437.847Z" stroke="white" stroke-width="0.4"/>
    <path d="M796.096 437.847L876.164 393.16L956.232 437.847V527.208L876.164 571.895L796.096 527.208V437.847Z" stroke="white" stroke-width="0.4"/>
    <path d="M955.162 437.847L1035.23 393.16L1115.3 437.847V527.208L1035.23 571.895L955.162 527.208V437.847Z" stroke="white" stroke-width="0.4"/>
    <path d="M1114.23 437.847L1194.3 393.16L1274.37 437.847V527.208L1194.3 571.895L1114.23 527.208V437.847Z" stroke="white" stroke-width="0.4"/>
    <path d="M1272.62 437.847L1352.69 393.16L1432.75 437.847V527.208L1352.69 571.895L1272.62 527.208V437.847Z" stroke="white" stroke-width="0.4"/>
    <path d="M-79.6458 568.647L0.422142 523.96L80.49 568.647V658.008L0.422142 702.695L-79.6458 658.008V568.647Z" stroke="white" stroke-width="0.4"/>
    <path d="M79.4246 568.647L159.492 523.96L239.56 568.647V658.008L159.492 702.695L79.4246 658.008V568.647Z" stroke="white" stroke-width="0.4"/>
    <path d="M238.49 568.647L318.558 523.96L398.626 568.647V658.008L318.558 702.695L238.49 658.008V568.647Z" stroke="white" stroke-width="0.4"/>
    <path d="M397.56 568.647L477.628 523.96L557.696 568.647V658.008L477.628 702.695L397.56 658.008V568.647Z" stroke="white" stroke-width="0.4"/>
    <path d="M556.626 568.647L636.694 523.96L716.762 568.647V658.008L636.694 702.695L556.626 658.008V568.647Z" stroke="white" stroke-width="0.4"/>
    <path d="M715.696 568.647L795.764 523.96L875.832 568.647V658.008L795.764 702.695L715.696 658.008V568.647Z" stroke="white" stroke-width="0.4"/>
    <path d="M874.762 568.647L954.83 523.96L1034.9 568.647V658.008L954.83 702.695L874.762 658.008V568.647Z" stroke="white" stroke-width="0.4"/>
    <path d="M1033.83 568.647L1113.9 523.96L1193.97 568.647V658.008L1113.9 702.695L1033.83 658.008V568.647Z" stroke="white" stroke-width="0.4"/>
    <path d="M1354.18 307.25L1434 263.559L1513.82 307.25V394.613L1434 438.303L1354.18 394.613V307.25Z" stroke="white" stroke-width="0.4"/>
    <path d="M1431.02 437.847L1511.09 393.16L1591.15 437.847V527.208L1511.09 571.895L1431.02 527.208V437.847Z" stroke="white" stroke-width="0.4"/>
    <path d="M1193.42 568.647L1273.49 523.96L1353.55 568.647V658.008L1273.49 702.695L1193.42 658.008V568.647Z" stroke="white" stroke-width="0.4"/>
    <path d="M1352.48 568.647L1432.55 523.96L1512.62 568.647V658.008L1432.55 702.695L1352.48 658.008V568.647Z" stroke="white" stroke-width="0.4"/>
    </g>
    </g>
    <g opacity="0.7">
    <mask id="mask1_1_1508" style="mask-type:alpha" maskUnits="userSpaceOnUse" x="0" y="0" width="1440" height="1441">
    <rect y="0.53125" width="1440" height="1440" fill="url(#paint1_radial_1_1508)"/>
    </mask>
    <g mask="url(#mask1_1_1508)">
    <path d="M-76.1817 45.4468L3.88619 0.760288L83.9541 45.4468V134.808L3.88619 179.495L-76.1817 134.808V45.4468Z" stroke="white" stroke-width="0.4"/>
    <path d="M82.8839 45.4468L162.952 0.760288L243.02 45.4468V134.808L162.952 179.495L82.8839 134.808V45.4468Z" stroke="white" stroke-width="0.4"/>
    <path d="M241.954 45.4468L322.022 0.760288L402.09 45.4468V134.808L322.022 179.495L241.954 134.808V45.4468Z" stroke="white" stroke-width="0.4"/>
    <path d="M401.025 45.4468L481.092 0.760288L561.16 45.4468V134.808L481.092 179.495L401.025 134.808V45.4468Z" stroke="white" stroke-width="0.4"/>
    <path d="M560.09 45.4468L640.158 0.760288L720.226 45.4468V134.808L640.158 179.495L560.09 134.808V45.4468Z" stroke="white" stroke-width="0.4"/>
    <path d="M719.161 45.4468L799.228 0.760288L879.296 45.4468V134.808L799.228 179.495L719.161 134.808V45.4468Z" stroke="white" stroke-width="0.4"/>
    <path d="M878.226 45.4468L958.294 0.760288L1038.36 45.4468V134.808L958.294 179.495L878.226 134.808V45.4468Z" stroke="white" stroke-width="0.4"/>
    <path d="M1037.3 45.4468L1117.36 0.760288L1197.43 45.4468V134.808L1117.36 179.495L1037.3 134.808V45.4468Z" stroke="white" stroke-width="0.4"/>
    <path d="M1196.36 45.4468L1276.43 0.760288L1356.5 45.4468V134.808L1276.43 179.495L1196.36 134.808V45.4468Z" stroke="white" stroke-width="0.4"/>
    <path d="M1355.44 45.4468L1435.51 0.760288L1515.57 45.4468V134.808L1435.51 179.495L1355.44 134.808V45.4468Z" stroke="white" stroke-width="0.4"/>
    <path d="M-156.582 176.247L-76.5138 131.56L3.55406 176.247V265.608L-76.5138 310.295L-156.582 265.608V176.247Z" stroke="white" stroke-width="0.4"/>
    <path d="M2.48388 176.247L82.5518 131.56L162.62 176.247V265.608L82.5518 310.295L2.48388 265.608V176.247Z" stroke="white" stroke-width="0.4"/>
    <path d="M161.554 176.247L241.622 131.56L321.69 176.247V265.608L241.622 310.295L161.554 265.608V176.247Z" stroke="white" stroke-width="0.4"/>
    <path d="M320.625 176.247L400.692 131.56L480.76 176.247V265.608L400.692 310.295L320.625 265.608V176.247Z" stroke="white" stroke-width="0.4"/>
    <path d="M479.69 176.247L559.758 131.56L639.826 176.247V265.608L559.758 310.295L479.69 265.608V176.247Z" stroke="white" stroke-width="0.4"/>
    <path d="M638.761 176.247L718.828 131.56L798.896 176.247V265.608L718.828 310.295L638.761 265.608V176.247Z" stroke="white" stroke-width="0.4"/>
    <path d="M797.826 176.247L877.894 131.56L957.962 176.247V265.608L877.894 310.295L797.826 265.608V176.247Z" stroke="white" stroke-width="0.4"/>
    <path d="M956.896 176.247L1036.96 131.56L1117.03 176.247V265.608L1036.96 310.295L956.896 265.608V176.247Z" stroke="white" stroke-width="0.4"/>
    <path d="M1115.96 176.247L1196.03 131.56L1276.1 176.247V265.608L1196.03 310.295L1115.96 265.608V176.247Z" stroke="white" stroke-width="0.4"/>
    <path d="M1275.04 176.247L1355.11 131.56L1435.17 176.247V265.608L1355.11 310.295L1275.04 265.608V176.247Z" stroke="white" stroke-width="0.4"/>
    <path d="M-77.9161 307.047L2.15182 262.36L82.2197 307.047V396.408L2.15182 441.095L-77.9161 396.408V307.047Z" stroke="white" stroke-width="0.4"/>
    <path d="M81.1542 307.047L161.222 262.36L241.29 307.047V396.408L161.222 441.095L81.1542 396.408V307.047Z" stroke="white" stroke-width="0.4"/>
    <path d="M240.225 307.047L320.292 262.36L400.36 307.047V396.408L320.292 441.095L240.225 396.408V307.047Z" stroke="white" stroke-width="0.4"/>
    <path d="M399.29 307.047L479.358 262.36L559.426 307.047V396.408L479.358 441.095L399.29 396.408V307.047Z" stroke="white" stroke-width="0.4"/>
    <path d="M558.361 307.047L638.428 262.36L718.496 307.047V396.408L638.428 441.095L558.361 396.408V307.047Z" stroke="white" stroke-width="0.4"/>
    <path d="M717.426 307.047L797.494 262.36L877.562 307.047V396.408L797.494 441.095L717.426 396.408V307.047Z" stroke="white" stroke-width="0.4"/>
    <path d="M876.497 307.047L956.564 262.36L1036.63 307.047V396.408L956.564 441.095L876.497 396.408V307.047Z" stroke="white" stroke-width="0.4"/>
    <path d="M1035.56 307.047L1115.63 262.36L1195.7 307.047V396.408L1115.63 441.095L1035.56 396.408V307.047Z" stroke="white" stroke-width="0.4"/>
    <path d="M1194.64 307.047L1274.71 262.36L1354.77 307.047V396.408L1274.71 441.095L1194.64 396.408V307.047Z" stroke="white" stroke-width="0.4"/>
    <path d="M-158.316 437.847L-78.2482 393.16L1.81969 437.847V527.208L-78.2482 571.895L-158.316 527.208V437.847Z" stroke="white" stroke-width="0.4"/>
    <path d="M0.754207 437.847L80.8221 393.16L160.89 437.847V527.208L80.8221 571.895L0.754207 527.208V437.847Z" stroke="white" stroke-width="0.4"/>
    <path d="M159.825 437.847L239.893 393.16L319.96 437.847V527.208L239.893 571.895L159.825 527.208V437.847Z" stroke="white" stroke-width="0.4"/>
    <path d="M318.89 437.847L398.958 393.16L479.026 437.847V527.208L398.958 571.895L318.89 527.208V437.847Z" stroke="white" stroke-width="0.4"/>
    <path d="M477.961 437.847L558.028 393.16L638.096 437.847V527.208L558.028 571.895L477.961 527.208V437.847Z" stroke="white" stroke-width="0.4"/>
    <path d="M637.026 437.847L717.094 393.16L797.162 437.847V527.208L717.094 571.895L637.026 527.208V437.847Z" stroke="white" stroke-width="0.4"/>
    <path d="M796.096 437.847L876.164 393.16L956.232 437.847V527.208L876.164 571.895L796.096 527.208V437.847Z" stroke="white" stroke-width="0.4"/>
    <path d="M955.162 437.847L1035.23 393.16L1115.3 437.847V527.208L1035.23 571.895L955.162 527.208V437.847Z" stroke="white" stroke-width="0.4"/>
    <path d="M1114.23 437.847L1194.3 393.16L1274.37 437.847V527.208L1194.3 571.895L1114.23 527.208V437.847Z" stroke="white" stroke-width="0.4"/>
    <path d="M1272.62 437.847L1352.69 393.16L1432.75 437.847V527.208L1352.69 571.895L1272.62 527.208V437.847Z" stroke="white" stroke-width="0.4"/>
    <path d="M-79.6458 568.647L0.422142 523.96L80.49 568.647V658.008L0.422142 702.695L-79.6458 658.008V568.647Z" stroke="white" stroke-width="0.4"/>
    <path d="M79.4246 568.647L159.492 523.96L239.56 568.647V658.008L159.492 702.695L79.4246 658.008V568.647Z" stroke="white" stroke-width="0.4"/>
    <path d="M238.49 568.647L318.558 523.96L398.626 568.647V658.008L318.558 702.695L238.49 658.008V568.647Z" stroke="white" stroke-width="0.4"/>
    <path d="M397.56 568.647L477.628 523.96L557.696 568.647V658.008L477.628 702.695L397.56 658.008V568.647Z" stroke="white" stroke-width="0.4"/>
    <path d="M556.626 568.647L636.694 523.96L716.762 568.647V658.008L636.694 702.695L556.626 658.008V568.647Z" stroke="white" stroke-width="0.4"/>
    <path d="M715.696 568.647L795.764 523.96L875.832 568.647V658.008L795.764 702.695L715.696 658.008V568.647Z" stroke="white" stroke-width="0.4"/>
    <path d="M874.762 568.647L954.83 523.96L1034.9 568.647V658.008L954.83 702.695L874.762 658.008V568.647Z" stroke="white" stroke-width="0.4"/>
    <path d="M1033.83 568.647L1113.9 523.96L1193.97 568.647V658.008L1113.9 702.695L1033.83 658.008V568.647Z" stroke="white" stroke-width="0.4"/>
    <path d="M1354.18 307.25L1434 263.559L1513.82 307.25V394.613L1434 438.303L1354.18 394.613V307.25Z" stroke="white" stroke-width="0.4"/>
    <path d="M1431.02 437.847L1511.09 393.16L1591.15 437.847V527.208L1511.09 571.895L1431.02 527.208V437.847Z" stroke="white" stroke-width="0.4"/>
    <path d="M1193.42 568.647L1273.49 523.96L1353.55 568.647V658.008L1273.49 702.695L1193.42 658.008V568.647Z" stroke="white" stroke-width="0.4"/>
    <path d="M1352.48 568.647L1432.55 523.96L1512.62 568.647V658.008L1432.55 702.695L1352.48 658.008V568.647Z" stroke="white" stroke-width="0.4"/>
    </g>
    </g>
    </g>
    <defs>
    <radialGradient id="paint0_radial_1_1508" cx="0" cy="0" r="1" gradientUnits="userSpaceOnUse" gradientTransform="translate(-232.912 269.04) rotate(26.3263) scale(995.04)">
    <stop stop-opacity="0"/>
    <stop offset="0.347214"/>
    <stop offset="1" stop-opacity="0"/>
    </radialGradient>
    <radialGradient id="paint1_radial_1_1508" cx="0" cy="0" r="1" gradientUnits="userSpaceOnUse" gradientTransform="translate(1560.03 836.404) rotate(-151.101) scale(997.518)">
    <stop stop-opacity="0"/>
    <stop offset="0.347214"/>
    <stop offset="1" stop-opacity="0"/>
    </radialGradient>
    <clipPath id="clip0_1_1508">
    <rect width="1440" height="578.87" fill="white" transform="translate(0 0.53125)"/>
    </clipPath>
    </defs>
    </svg>
    