<svg width="124" height="124" viewBox="0 0 124 124" fill="none" xmlns="http://www.w3.org/2000/svg">
<circle cx="61.9988" cy="62.2589" r="61.4152" fill="#22333C"/>
<path d="M64.1321 59.9194H59.7081C55.4323 59.9194 51.9662 63.3856 51.9662 67.6614V80.9332C51.9662 85.209 55.4323 88.6752 59.7081 88.6752H64.1321C68.4078 88.6752 71.874 85.209 71.874 80.9332V67.6614C71.874 63.3856 68.4078 59.9194 64.1321 59.9194Z" stroke="white" stroke-width="1.10599" stroke-linecap="round" stroke-linejoin="round"/>
<path d="M61.9201 72.0856V65.4497" stroke="white" stroke-width="1.10599" stroke-linecap="round" stroke-linejoin="round"/>
<path d="M27.1222 40.3264C26.5568 40.3264 26.0075 40.2411 25.4742 40.0704C24.9515 39.8998 24.4715 39.6224 24.0342 39.2384C23.5968 38.8438 23.2288 38.3104 22.9302 37.6384L24.2582 36.8864C24.6315 37.5584 25.0422 38.0438 25.4902 38.3424C25.9382 38.6411 26.4982 38.7904 27.1702 38.7904C27.8208 38.7904 28.3115 38.6464 28.6422 38.3584C28.9835 38.0704 29.1542 37.6758 29.1542 37.1744C29.1542 36.8758 29.0795 36.6144 28.9302 36.3904C28.7915 36.1664 28.5408 35.9584 28.1782 35.7664C27.8155 35.5744 27.3035 35.3984 26.6422 35.2384C25.8102 35.0251 25.1595 34.7638 24.6902 34.4544C24.2315 34.1344 23.9115 33.7718 23.7302 33.3664C23.5488 32.9504 23.4582 32.5024 23.4582 32.0224C23.4582 31.4251 23.5968 30.9078 23.8742 30.4704C24.1515 30.0224 24.5515 29.6758 25.0742 29.4304C25.5968 29.1744 26.2155 29.0464 26.9302 29.0464C27.7835 29.0464 28.4875 29.2118 29.0422 29.5424C29.5968 29.8624 30.0662 30.3051 30.4502 30.8704L29.1062 31.7344C28.7755 31.3291 28.4288 31.0411 28.0662 30.8704C27.7142 30.6891 27.3355 30.5984 26.9302 30.5984C26.3115 30.5984 25.8368 30.7211 25.5062 30.9664C25.1862 31.2118 25.0262 31.5638 25.0262 32.0224C25.0262 32.4171 25.1755 32.7584 25.4742 33.0464C25.7835 33.3344 26.3808 33.5851 27.2662 33.7984C28.1622 34.0224 28.8608 34.2891 29.3622 34.5984C29.8742 34.8971 30.2315 35.2598 30.4342 35.6864C30.6475 36.1024 30.7542 36.6038 30.7542 37.1904C30.7542 37.7771 30.6048 38.3051 30.3062 38.7744C30.0075 39.2438 29.5862 39.6224 29.0422 39.9104C28.4982 40.1878 27.8582 40.3264 27.1222 40.3264ZM35.4287 40.2464C34.6287 40.2464 33.9353 40.0758 33.3487 39.7344C32.762 39.3824 32.3087 38.9024 31.9887 38.2944C31.6687 37.6864 31.5087 36.9824 31.5087 36.1824C31.5087 35.3824 31.6687 34.6784 31.9887 34.0704C32.3087 33.4624 32.762 32.9878 33.3487 32.6464C33.9353 32.2944 34.6287 32.1184 35.4287 32.1184C36.186 32.1184 36.874 32.3264 37.4927 32.7424C38.1113 33.1478 38.5593 33.6918 38.8367 34.3744L37.3167 35.0144C37.146 34.5664 36.89 34.2304 36.5487 34.0064C36.2073 33.7718 35.818 33.6544 35.3807 33.6544C34.7407 33.6544 34.2073 33.8784 33.7807 34.3264C33.354 34.7638 33.1407 35.3824 33.1407 36.1824C33.1407 36.9824 33.354 37.6064 33.7807 38.0544C34.2073 38.4918 34.7407 38.7104 35.3807 38.7104C35.818 38.7104 36.2073 38.5984 36.5487 38.3744C36.89 38.1398 37.146 37.7984 37.3167 37.3504L38.8367 37.9904C38.5487 38.6731 38.0953 39.2224 37.4767 39.6384C36.8687 40.0438 36.186 40.2464 35.4287 40.2464ZM43.5712 40.2464C42.7818 40.2464 42.0832 40.0811 41.4752 39.7504C40.8778 39.4091 40.4138 38.9344 40.0832 38.3264C39.7525 37.7184 39.5872 37.0091 39.5872 36.1984C39.5872 35.3771 39.7525 34.6624 40.0832 34.0544C40.4138 33.4464 40.8778 32.9718 41.4752 32.6304C42.0832 32.2891 42.7818 32.1184 43.5712 32.1184C44.3712 32.1184 45.0698 32.2891 45.6672 32.6304C46.2645 32.9718 46.7285 33.4464 47.0592 34.0544C47.4005 34.6624 47.5712 35.3771 47.5712 36.1984C47.5712 37.0091 47.4005 37.7184 47.0592 38.3264C46.7285 38.9344 46.2645 39.4091 45.6672 39.7504C45.0698 40.0811 44.3712 40.2464 43.5712 40.2464ZM43.5712 38.7104C44.2858 38.7104 44.8565 38.4811 45.2832 38.0224C45.7205 37.5531 45.9392 36.9451 45.9392 36.1984C45.9392 35.4411 45.7205 34.8278 45.2832 34.3584C44.8565 33.8891 44.2858 33.6544 43.5712 33.6544C42.8672 33.6544 42.2965 33.8891 41.8592 34.3584C41.4325 34.8171 41.2192 35.4251 41.2192 36.1824C41.2192 36.9398 41.4325 37.5531 41.8592 38.0224C42.2965 38.4811 42.8672 38.7104 43.5712 38.7104ZM50.5064 40.1664C50.2291 40.1664 49.9838 40.1024 49.7704 39.9744C49.5571 39.8358 49.3864 39.6384 49.2584 39.3824C49.1411 39.1264 49.0824 38.8118 49.0824 38.4384V29.1904H50.6504V37.8784C50.6504 38.2091 50.7304 38.4331 50.8904 38.5504C51.0611 38.6678 51.2531 38.7264 51.4664 38.7264V40.0064C51.3278 40.0598 51.1784 40.0971 51.0184 40.1184C50.8584 40.1504 50.6878 40.1664 50.5064 40.1664ZM54.4596 40.1664C54.1822 40.1664 53.9369 40.1024 53.7236 39.9744C53.5102 39.8358 53.3396 39.6384 53.2116 39.3824C53.0942 39.1264 53.0356 38.8118 53.0356 38.4384V29.1904H54.6036V37.8784C54.6036 38.2091 54.6836 38.4331 54.8436 38.5504C55.0142 38.6678 55.2062 38.7264 55.4196 38.7264V40.0064C55.2809 40.0598 55.1316 40.0971 54.9716 40.1184C54.8116 40.1504 54.6409 40.1664 54.4596 40.1664ZM61.4809 40.0864V29.1904H65.0649C66.1103 29.1904 67.0436 29.4091 67.8649 29.8464C68.6863 30.2838 69.3316 30.9131 69.8009 31.7344C70.2703 32.5451 70.5049 33.5211 70.5049 34.6624C70.5049 35.8251 70.2649 36.8118 69.7849 37.6224C69.3156 38.4224 68.6703 39.0358 67.8489 39.4624C67.0276 39.8784 66.0943 40.0864 65.0489 40.0864H61.4809ZM63.0809 38.9344L62.6009 38.5824H64.9689C65.6836 38.5824 66.3289 38.4438 66.9049 38.1664C67.4916 37.8784 67.9609 37.4464 68.3129 36.8704C68.6649 36.2944 68.8409 35.5584 68.8409 34.6624C68.8409 33.7984 68.6649 33.0731 68.3129 32.4864C67.9716 31.8891 67.5076 31.4411 66.9209 31.1424C66.3449 30.8438 65.6996 30.6944 64.9849 30.6944H62.4889L63.0809 30.1184V38.9344ZM75.5243 40.2464C74.735 40.2464 74.0363 40.0811 73.4283 39.7504C72.831 39.4091 72.367 38.9344 72.0363 38.3264C71.7056 37.7184 71.5403 37.0091 71.5403 36.1984C71.5403 35.3771 71.7056 34.6624 72.0363 34.0544C72.367 33.4464 72.831 32.9718 73.4283 32.6304C74.0363 32.2891 74.735 32.1184 75.5243 32.1184C76.3243 32.1184 77.023 32.2891 77.6203 32.6304C78.2176 32.9718 78.6816 33.4464 79.0123 34.0544C79.3536 34.6624 79.5243 35.3771 79.5243 36.1984C79.5243 37.0091 79.3536 37.7184 79.0123 38.3264C78.6816 38.9344 78.2176 39.4091 77.6203 39.7504C77.023 40.0811 76.3243 40.2464 75.5243 40.2464ZM75.5243 38.7104C76.239 38.7104 76.8096 38.4811 77.2363 38.0224C77.6736 37.5531 77.8923 36.9451 77.8923 36.1984C77.8923 35.4411 77.6736 34.8278 77.2363 34.3584C76.8096 33.8891 76.239 33.6544 75.5243 33.6544C74.8203 33.6544 74.2496 33.8891 73.8123 34.3584C73.3856 34.8171 73.1723 35.4251 73.1723 36.1824C73.1723 36.9398 73.3856 37.5531 73.8123 38.0224C74.2496 38.4811 74.8203 38.7104 75.5243 38.7104ZM82.4492 40.0864L79.9852 32.2784H81.5852L83.2012 38.0224H83.0572L84.8812 32.2784H86.3372L88.1612 38.0224H88.0172L89.6332 32.2784H91.2332L88.7692 40.0864H87.4092L85.4732 33.9904H85.7452L83.8092 40.0864H82.4492ZM96.9214 32.1184C97.4761 32.1184 97.9134 32.2144 98.2334 32.4064C98.5534 32.5878 98.7881 32.8384 98.9374 33.1584C99.0868 33.4678 99.1828 33.8198 99.2254 34.2144C99.2681 34.6091 99.2894 35.0144 99.2894 35.4304V40.0864H97.6894V35.0944C97.6894 34.5398 97.5614 34.1664 97.3054 33.9744C97.0601 33.7824 96.7668 33.6864 96.4254 33.6864C96.0841 33.6864 95.7374 33.7558 95.3854 33.8944C95.0334 34.0331 94.7188 34.2198 94.4414 34.4544C94.1641 34.6891 93.9508 34.9504 93.8014 35.2384V34.3424H94.0574V40.0864H92.4574V32.2784H93.6734L94.0094 33.6544L93.6094 33.7024C93.9081 33.3611 94.2334 33.0731 94.5854 32.8384C94.9374 32.6038 95.3108 32.4278 95.7054 32.3104C96.1001 32.1824 96.5054 32.1184 96.9214 32.1184Z" fill="white"/>
</svg>
