<svg width="39" height="39" viewBox="0 0 39 39" fill="none" xmlns="http://www.w3.org/2000/svg">
<path d="M23.042 15.9424H15.9658V23.0186H23.042V15.9424Z" stroke="#ECE5D3" stroke-width="2.35872" stroke-linecap="round" stroke-linejoin="round"/>
<path d="M30.1183 7.68689H8.88981C8.23847 7.68689 7.71045 8.21491 7.71045 8.86625V30.0948C7.71045 30.7461 8.23847 31.2741 8.88981 31.2741H30.1183C30.7697 31.2741 31.2977 30.7461 31.2977 30.0948V8.86625C31.2977 8.21491 30.7697 7.68689 30.1183 7.68689Z" stroke="#ECE5D3" stroke-width="2.35872" stroke-linecap="round" stroke-linejoin="round"/>
<path d="M31.2979 15.9424H34.8359" stroke="#ECE5D3" stroke-width="2.35872" stroke-linecap="round" stroke-linejoin="round"/>
<path d="M31.2979 23.0186H34.8359" stroke="#ECE5D3" stroke-width="2.35872" stroke-linecap="round" stroke-linejoin="round"/>
<path d="M4.17236 15.9424H7.71045" stroke="#ECE5D3" stroke-width="2.35872" stroke-linecap="round" stroke-linejoin="round"/>
<path d="M4.17236 23.0186H7.71045" stroke="#ECE5D3" stroke-width="2.35872" stroke-linecap="round" stroke-linejoin="round"/>
<path d="M23.042 31.2742V34.8123" stroke="#ECE5D3" stroke-width="2.35872" stroke-linecap="round" stroke-linejoin="round"/>
<path d="M15.9658 31.2742V34.8123" stroke="#ECE5D3" stroke-width="2.35872" stroke-linecap="round" stroke-linejoin="round"/>
<path d="M23.042 4.1488V7.68689" stroke="#ECE5D3" stroke-width="2.35872" stroke-linecap="round" stroke-linejoin="round"/>
<path d="M15.9658 4.1488V7.68689" stroke="#ECE5D3" stroke-width="2.35872" stroke-linecap="round" stroke-linejoin="round"/>
</svg>
