<svg width="33" height="33" viewBox="0 0 33 33" fill="none" xmlns="http://www.w3.org/2000/svg">
<path d="M7.66014 13.0781C7.66014 11.1003 8.24663 9.16691 9.34544 7.52242C10.4443 5.87793 12.006 4.5962 13.8333 3.83933C15.6606 3.08245 17.6712 2.88442 19.611 3.27027C21.5509 3.65612 23.3327 4.60853 24.7312 6.00705C26.1297 7.40558 27.0821 9.18741 27.468 11.1272C27.8538 13.067 27.6558 15.0777 26.8989 16.905C26.1421 18.7322 24.8603 20.294 23.2158 21.3928C21.5713 22.4916 19.638 23.0781 17.6601 23.0781C15.0089 23.0751 12.4671 22.0206 10.5924 20.1459C8.71764 18.2712 7.66312 15.7294 7.66014 13.0781ZM25.9676 21.7381C23.7033 23.918 20.6741 25.1225 17.5311 25.0926C14.3881 25.0628 11.3823 23.801 9.15981 21.5785C6.93729 19.3559 5.67549 16.3501 5.64563 13.2072C5.61577 10.0642 6.82024 7.03496 9.00014 4.77062C9.09347 4.67639 9.16713 4.56453 9.21683 4.44156C9.26652 4.31859 9.29125 4.18696 9.28959 4.05434C9.28792 3.92172 9.25989 3.79076 9.20713 3.66907C9.15437 3.54739 9.07792 3.43742 8.98225 3.34556C8.88658 3.2537 8.77359 3.18179 8.64986 3.13402C8.52613 3.08624 8.39413 3.06356 8.26156 3.06729C8.12898 3.07102 7.99846 3.10108 7.87761 3.15573C7.75677 3.21039 7.648 3.28853 7.55764 3.38562C5.71682 5.30444 4.46051 7.70782 3.93572 10.3146C3.41092 12.9213 3.63933 15.6236 4.59423 18.1052C5.54913 20.5869 7.19103 22.7453 9.32781 24.3279C11.4646 25.9105 14.0079 26.8519 16.6601 27.0419V29.0781H13.6601C13.3949 29.0781 13.1406 29.1835 12.953 29.371C12.7655 29.5585 12.6601 29.8129 12.6601 30.0781C12.6601 30.3433 12.7655 30.5977 12.953 30.7852C13.1406 30.9728 13.3949 31.0781 13.6601 31.0781H21.6601C21.9254 31.0781 22.1797 30.9728 22.3672 30.7852C22.5548 30.5977 22.6601 30.3433 22.6601 30.0781C22.6601 29.8129 22.5548 29.5585 22.3672 29.371C22.1797 29.1835 21.9254 29.0781 21.6601 29.0781H18.6601V27.0431C21.9217 26.8178 24.9995 25.4502 27.3526 23.1806C27.4497 23.0903 27.5279 22.9815 27.5825 22.8606C27.6372 22.7398 27.6672 22.6093 27.671 22.4767C27.6747 22.3441 27.652 22.2121 27.6042 22.0884C27.5565 21.9647 27.4846 21.8517 27.3927 21.756C27.3008 21.6603 27.1909 21.5839 27.0692 21.5311C26.9475 21.4784 26.8165 21.4503 26.6839 21.4487C26.5513 21.447 26.4197 21.4717 26.2967 21.5214C26.1737 21.5711 26.0619 21.6448 25.9676 21.7381Z" fill="#ECE5D3"/>
</svg>
