<svg width="28" height="20" viewBox="0 0 28 20" fill="none" xmlns="http://www.w3.org/2000/svg">
<path d="M20.6962 6.07027L20.6932 6.04516C20.6666 5.85488 20.5699 5.1661 20.6962 6.07027ZM0.783068 8.95024C0.75643 8.49815 0.820361 9.62228 0.783068 8.95024V8.95024ZM22.4947 6.42874C22.4962 6.43027 22.4962 6.43255 22.4985 6.43407C22.653 6.56346 22.548 6.47441 22.4947 6.42874ZM16.7386 5.09988L16.7393 5.10825L16.7386 5.07324C16.7388 5.08212 16.7388 5.091 16.7386 5.09988ZM17.543 9.84832L17.54 9.85061C17.7417 9.73644 17.6237 9.80266 17.543 9.84832Z" fill="#ECE5D3"/>
<path d="M16.7407 5.14325L16.7392 5.09834C16.7361 5.06714 16.7308 5.03213 16.7285 5.00321C16.7696 5.55804 16.7643 5.39136 16.7506 5.20718C16.7453 5.17065 16.743 5.1402 16.7392 5.10672C16.7407 5.12041 16.7384 5.12574 16.7407 5.14325ZM17.482 1.82261C17.364 1.6057 17.6167 2.06616 17.482 1.82261V1.82261ZM17.5406 9.84831L17.5391 9.84907C17.5307 9.8542 17.5224 9.85927 17.514 9.86429L17.5406 9.84831ZM20.4525 18.2743H23.1202V19.0126H20.4525V18.2743ZM20.2303 9.08037C20.0332 8.61154 20.5865 9.93812 20.2303 9.08037V9.08037Z" fill="#ECE5D3"/>
<path d="M5.37716 18.5677C3.7332 18.5677 3.59849 17.248 3.59849 17.248H19.9087L20.2344 16.3171L20.5624 17.248H23.8062V19.6484H19.8607V18.5677H5.37716ZM16.0476 2.94479C16.0241 2.56196 15.6313 1.47436 16.0522 1.21026C16.4525 0.9591 16.8795 2.43942 16.7631 2.71874C16.6139 3.07265 16.6185 3.3436 16.7479 3.80482C16.9161 4.39923 17.2433 4.92743 17.5592 5.45182C18.0014 6.18855 18.9345 7.25712 18.6498 8.1887C18.1848 7.95124 17.907 6.8918 17.7053 6.45798C17.5401 6.10255 17.375 5.74408 17.1703 5.40843C17.12 5.327 16.7517 4.84523 16.738 5.07127C16.7425 5.11009 16.7463 5.15651 16.7501 5.20675C16.9001 6.31261 17.5835 8.7169 16.4929 9.28695C16.3338 8.98176 16.5233 8.50836 16.5675 8.19327C16.6535 7.55699 16.486 6.84537 16.4069 6.21367C16.2303 4.78815 16.12 3.71577 15.1229 2.61447C14.8611 2.32526 14.5209 2.0642 14.4752 1.6555C14.4577 1.49491 14.3961 0.817537 14.731 1.00933C14.9197 1.11741 16.1968 2.19511 15.5202 2.23088C15.5986 2.34733 15.8802 2.97751 16.0476 2.94479ZM17.5569 2.60914C17.5394 2.34581 17.6163 2.06801 17.48 1.82142C17.3971 1.66996 17.1763 1.51317 17.2091 1.31453C17.2509 1.04434 17.4709 1.06565 17.5767 1.23538C17.7829 1.56569 17.9321 2.33667 17.5569 2.60914ZM18.1346 2.98208C18.6551 3.99052 17.0066 3.69903 17.3841 3.15028C17.4404 3.24846 17.4975 3.3474 17.5569 3.44558L17.7129 3.03459C18.0409 3.77133 17.8294 3.13962 18.1346 2.98208ZM19.1674 4.70366C19.2678 5.65579 19.42 6.61933 19.334 7.57906C19.2039 9.03503 18.4466 10.561 16.7425 10.2672C16.827 10.0381 17.3445 9.95519 17.5379 9.84788L17.5424 9.84483C19.5213 8.72603 18.8926 6.33544 18.7115 4.4624C18.662 3.94638 18.6049 3.43188 18.5615 2.91586C18.5273 2.52695 18.2967 2.01702 18.4329 1.64256C18.8005 0.634115 19.108 1.6045 19.2191 2.13498C19.3006 2.5338 19.0258 2.54902 19.0479 2.8702C19.0882 3.48288 19.1027 4.09251 19.1674 4.70366ZM14.5087 9.44374C14.4577 9.31207 15.3566 8.67351 15.1009 9.38894C14.868 10.0366 15.8125 9.46353 16.0431 9.41329C15.7158 9.92931 14.6609 10.4172 14.8124 9.38437L14.5087 9.44374ZM15.2439 5.84073C14.7797 6.67413 13.5863 6.6962 12.8206 7.0836C12.9021 7.51742 15.0978 6.99455 15.4373 7.00216C15.7866 7.01129 16.1983 7.1833 15.9502 7.60266C15.6945 8.03115 14.9684 8.06083 14.5354 8.1202C14.0924 8.18185 13.3739 8.19707 13.0802 8.60045C12.6585 9.17583 13.4934 9.28391 13.8169 9.45972C14.5414 9.85625 13.3907 10.1888 13.0505 10.1234C11.9263 9.90268 11.7224 9.27249 11.0115 8.5388C10.3418 9.40264 8.25789 11.4302 7.76775 9.34784C6.99372 9.6127 6.25013 9.99324 5.43044 10.0945C5.77978 9.53811 6.57816 9.32577 7.12615 9.03351C7.84081 8.65144 7.9017 7.98929 8.29746 7.36139C8.41391 7.62016 8.30203 7.89187 8.36596 8.15673C8.98549 7.85306 9.71614 7.2556 9.40257 6.49679C9.3668 6.41231 8.49306 4.64811 9.2473 4.96168C9.91554 5.241 9.72831 5.90467 9.83487 6.44732C10.0229 7.41467 9.60045 7.95809 8.88274 8.5114C8.56689 8.75343 7.79058 9.60813 8.75412 9.60052C9.42844 9.59291 10.0449 8.87977 10.4034 8.37897C10.8418 7.76477 10.685 7.17873 10.4278 6.51658C10.239 6.02796 9.67656 4.83229 10.3707 4.49056C10.9042 5.32548 11.1462 6.31489 11.3061 7.27996C11.4453 8.10574 11.6295 8.90412 12.5276 9.17659C12.418 8.57 12.8358 8.15673 13.3435 7.91394C12.9896 7.58059 10.8608 8.02659 11.6699 6.85375C11.9431 6.45722 13.4752 6.1916 13.431 5.8902C13.3389 5.25165 13.7157 4.57885 14.4379 4.68464C14.9578 4.75922 15.5567 5.27905 15.2439 5.84073ZM7.32403 6.93975C7.64597 7.12393 7.52876 7.95428 7.18323 8.0753C7.20758 7.89492 7.08885 6.80504 7.32403 6.93975ZM8.34009 3.79721C8.3751 4.2257 7.59498 4.70443 7.50365 4.10849C7.46407 3.86038 7.76546 3.08939 7.99074 3.2751C7.71295 3.97454 7.68555 4.17547 8.34009 3.79721ZM6.53935 3.57801C6.4914 3.23019 7.39253 2.70276 7.61477 2.52238C7.85299 2.32754 7.98618 2.30014 7.88115 2.02539C7.75557 1.70269 7.82026 1.20569 8.20005 1.08468C8.96342 0.841892 8.41467 1.93558 8.5159 2.22784C8.65518 2.63731 6.76919 3.53996 6.53935 3.57801ZM12.0017 4.96624C12.1364 5.11237 12.1159 5.33613 12.2932 5.45334C12.3297 5.28057 12.3678 5.10857 12.4051 4.9358C12.5794 5.02941 12.5459 5.26687 12.7285 5.34679C12.794 5.17554 12.832 5.00049 12.8419 4.81783C13.565 5.4092 11.6569 6.42525 12.0017 4.96624ZM13.9706 1.93786C14.1198 2.57413 14.4387 3.49658 13.9387 4.13056C13.5383 4.63973 12.9135 4.17851 12.5984 3.82689C12.23 4.3079 11.4826 5.00962 10.8821 4.42967C10.4072 3.96997 10.9917 3.18377 10.5526 2.75451C10.357 3.1518 9.96577 4.90612 9.27623 4.09784C8.89492 3.64879 8.4063 2.0505 9.16663 1.72856C9.09585 2.32221 8.96722 3.03383 9.33787 3.56127C9.73136 4.11839 10.0982 2.71113 10.2207 2.46378C10.4734 1.95385 11.1942 1.04358 11.048 2.18217C10.9894 2.63274 10.8243 3.65793 11.2809 3.96845C11.558 4.1572 11.969 3.82004 12.1296 3.61607C12.4545 3.2066 12.3107 2.65557 12.2087 2.19435C12.125 1.81989 12.0108 1.36628 12.2407 1.01847C12.555 0.540501 12.7399 1.63114 12.7567 1.8275C12.7727 2.02234 13.0185 4.39542 13.6045 3.60922C14.0993 2.94174 12.7049 1.46675 13.6456 1.06109C13.9851 0.913435 14.7097 2.43181 13.9706 1.93786ZM11.5496 1.14633C12.0177 1.20417 11.9743 2.30471 11.6622 2.68906C11.6333 2.35798 11.2452 1.10751 11.5496 1.14633ZM3.55739 1.01694C3.58479 1.09762 3.72712 1.49719 4.01176 1.07403C4.05591 1.26886 4.16398 1.61364 4.32914 1.22472C4.91366 1.87241 2.83816 1.68822 3.55739 1.01694ZM1.21856 1.2917C1.05188 1.36324 0.913365 1.16003 1.08233 1.01999C1.63564 0.561049 1.4233 2.07105 1.19269 2.0056C0.958269 1.93786 1.33653 1.5322 1.21856 1.2917ZM0.397346 2.16619C0.860089 2.41735 0.305254 4.02249 0.885966 4.10316C1.1767 4.14274 1.24139 2.88847 1.36241 2.66166C1.5504 2.31689 2.33737 1.25212 2.18667 2.2834C2.11665 2.7568 1.75589 4.12371 2.60907 4.10012C2.55884 3.34436 2.44392 2.61676 2.33813 1.86936C2.27952 1.47055 2.45001 0.730773 2.80087 1.38683C3.0566 1.86784 2.86632 2.05964 2.83131 2.5239C2.79174 3.0384 2.97211 3.53539 3.02159 4.04228C3.44399 3.63966 2.88687 2.256 3.26437 1.64941C4.12821 2.02615 3.11216 3.84516 4.25836 4.00574C4.78047 4.07957 4.23781 2.30623 4.2751 2.01397C4.31848 1.70725 4.58943 1.54286 4.74622 1.87774C4.94943 2.31156 4.97835 2.84813 5.01945 3.31924C5.05446 3.71805 5.07425 4.12828 4.78123 4.44718C4.33523 4.93123 3.73777 4.63897 3.53076 4.09632C2.50481 5.02332 3.85879 6.53485 2.95233 7.4786C2.81 6.69239 2.98734 5.76234 2.65474 5.01723C2.47664 4.61538 1.79851 4.77825 1.74904 4.08566C1.72697 3.766 1.95073 2.98969 1.69348 2.73929C1.55877 3.06884 1.40275 5.33537 0.619584 4.71432C0.0434384 4.25919 0.167496 2.77354 0.397346 2.16619ZM1.31218 9.11114C1.47124 9.43689 1.0671 10.2208 0.681993 9.85625C0.148469 9.3486 0.611973 8.15826 0.861611 7.62701C1.03971 7.96266 0.759625 8.57838 0.781696 8.94674C0.813662 9.51908 0.976535 9.25118 1.31218 9.11114ZM0.445294 6.64292C0.417134 6.35828 2.61288 5.11237 2.36857 5.57207C2.2194 5.85215 0.465844 6.85831 0.445294 6.64292ZM1.85483 6.92148C2.12578 7.37357 1.83428 8.17728 2.00477 8.69482L2.00553 8.69787C2.34345 9.71392 3.66395 9.39731 4.38318 9.05101C5.58189 8.47335 5.56896 7.56765 5.56896 6.38491C5.14046 6.60259 5.22114 7.45501 5.01412 7.83327C4.69979 8.40637 3.7332 8.96729 3.07562 8.86911C2.11817 8.72603 1.63031 7.07446 2.41043 6.46483C2.59766 7.02271 2.19732 8.08138 3.0741 8.18109C3.72179 8.25567 5.07348 7.46186 4.87788 6.68707C4.01481 6.94888 3.44932 6.70305 3.72103 5.68776C3.96534 4.77445 4.87332 5.43203 5.19526 5.91304C6.6185 5.10704 4.05362 1.97059 5.54156 1.12882C5.84675 1.65322 6.27068 2.33743 5.89699 2.86183C5.46697 3.46309 5.9183 4.76379 5.96548 5.43964C6.71972 4.79424 6.1451 5.96023 6.71972 6.03253C7.12691 6.08352 7.2502 5.09943 7.48234 5.12531C7.53028 5.31634 7.57443 6.03557 7.92681 5.9176C8.34694 5.77833 7.84918 5.17935 8.32182 5.02104C8.4611 5.36125 8.43218 6.50288 7.83929 6.41688C7.36284 6.34686 7.43743 6.04166 6.95033 6.34534C6.53706 6.60411 6.37876 6.30881 6.04007 6.15507C5.93504 7.06 6.241 8.05399 5.71585 8.87673C5.27289 9.57084 4.39992 9.89278 3.62818 10.0404C1.66456 10.4187 1.1219 8.48172 1.85483 6.92148ZM20.6918 6.04166L20.6971 6.08352C20.8098 6.8606 21.0617 8.14303 20.6583 8.85085C20.3866 9.33033 20.3257 8.58903 20.3181 8.43986C20.2801 7.8287 20.2725 7.21679 20.226 6.60563C20.1058 4.9906 19.5669 3.34892 19.5745 1.72932C19.5814 -0.302788 21.306 2.88618 20.3189 2.71341C20.4049 3.82384 20.5373 4.93808 20.6918 6.04166ZM21.9895 3.41894C22.2642 3.05895 22.6052 3.48896 22.456 3.64347C22.2848 3.81852 22.0976 3.49658 22.1128 3.94105C22.1219 4.19678 22.2543 4.62603 22.0116 4.8224C21.8365 4.73183 21.1736 3.77133 21.2954 3.60237C21.5016 3.31468 21.8456 4.18993 21.9195 4.29268C21.9864 4.01031 21.7954 3.67772 21.9895 3.41894ZM22.4971 6.43134C22.4492 6.38948 22.4636 6.40242 22.4933 6.42601C22.1622 6.13071 22.5816 5.79735 22.813 6.1269C22.988 6.37654 22.9956 6.9603 22.6737 7.11023C22.6737 6.8743 22.7026 6.60563 22.4971 6.43134ZM21.4856 6.29663C21.2809 5.98686 22.5907 5.15347 22.8175 5.00354C22.9736 5.24176 21.873 6.09722 21.4856 6.29663ZM21.5808 7.72748C22.1858 6.81569 23.0542 9.16898 23.4515 7.66355C23.7012 6.72055 23.3914 5.71287 23.3168 4.7676C23.262 4.07196 23.0154 3.52778 22.5968 2.97827C22.1653 2.40974 21.6904 1.87469 21.959 1.11589C22.6882 1.39977 22.6958 2.01093 23.0824 2.57946C23.1874 2.13194 22.8351 1.56493 23.122 1.141C23.4607 0.63792 23.7811 2.02767 23.8146 2.17837C23.9021 2.5787 23.5063 2.702 23.7438 3.26749C23.9295 3.71044 24.1959 4.16253 24.5041 4.53166C24.4425 4.11839 23.7438 1.0413 24.53 0.978128C24.7583 0.959862 24.9585 1.85034 24.9935 1.99571C25.1115 2.4691 24.8588 2.84508 24.8314 3.32152C24.7789 4.21581 24.9349 5.23186 25.4776 5.96479C25.747 6.32707 26.9008 7.68029 26.311 8.12324C25.8931 7.58972 25.5567 6.99759 25.1632 6.44885C25.1632 7.01586 25.3025 7.68486 24.9806 8.19707C24.6868 8.06692 24.855 7.09501 24.858 6.8469C24.8672 6.01578 24.3245 5.31254 23.8717 4.67322C23.7438 5.76767 24.5818 7.89948 23.6038 8.73973C22.899 9.34632 22.0671 8.01974 21.7954 8.49922C21.5853 8.86835 21.0617 10.22 20.484 10.0929C19.7587 9.93312 19.1917 7.85458 20.0289 7.59885C20.0594 8.09128 20.032 8.61491 20.2283 9.07994C20.6347 10.0579 21.3768 8.03191 21.5808 7.72748ZM25.4395 1.57254C25.7904 1.83131 25.9525 2.90521 25.6252 3.27053C25.5095 2.81768 25.0521 1.92188 25.4395 1.57254ZM23.2712 9.13549C23.463 9.12256 23.8907 9.77633 23.6395 9.94454C23.4698 10.0564 22.8168 10.179 23.1996 9.83722C23.6327 9.45287 23.2217 9.13854 23.2712 9.13549ZM24.7081 10.0694C24.6777 9.63553 25.6747 9.19105 25.9525 8.9612C26.6671 8.37288 26.6162 7.26473 26.5636 6.43895C26.4906 5.32624 26.3985 4.1846 26.2097 3.08711C26.1001 2.44855 25.7729 1.47207 26.3734 0.972038C26.7098 1.25897 27.2935 2.05888 27.0218 2.38538C26.6968 2.77582 27.1048 6.17866 27.1124 6.45037C27.1573 8.05094 26.6907 10.0694 24.7081 10.0694Z" fill="#ECE5D3"/>
</svg>
