<svg width="130" height="24" viewBox="0 0 130 24" fill="none" xmlns="http://www.w3.org/2000/svg">
<path d="M126.368 17.8986V17.8518C126.383 17.8127 126.395 17.7541 126.403 17.676C126.411 17.5979 126.415 17.5276 126.415 17.4652C126.415 17.223 126.38 16.9575 126.309 16.6685C126.247 16.3717 126.122 16.0047 125.934 15.5673L124.517 12.3807C124.079 12.3651 123.498 12.3573 122.771 12.3573C122.045 12.3573 121.26 12.3573 120.416 12.3573C119.799 12.3573 119.202 12.3573 118.624 12.3573C118.054 12.3573 117.538 12.3651 117.078 12.3807L115.73 15.4736C115.613 15.7625 115.488 16.0788 115.355 16.4225C115.223 16.7661 115.156 17.1137 115.156 17.4652C115.156 17.5667 115.164 17.6526 115.18 17.7229C115.195 17.7854 115.211 17.8283 115.227 17.8518V17.8986H112.837V17.8518C112.977 17.7034 113.153 17.4417 113.364 17.0668C113.575 16.6841 113.805 16.2077 114.055 15.6376L120.768 0.747437H121.705L128.067 15.0635C128.215 15.3994 128.367 15.7274 128.523 16.0476C128.687 16.36 128.84 16.6412 128.98 16.8911C129.121 17.141 129.246 17.3519 129.355 17.5237C129.465 17.6956 129.539 17.8049 129.578 17.8518V17.8986H126.368ZM118.776 11.3498C119.229 11.3498 119.694 11.3498 120.17 11.3498C120.647 11.342 121.112 11.3381 121.565 11.3381C122.025 11.3302 122.467 11.3263 122.888 11.3263C123.31 11.3185 123.693 11.3107 124.036 11.3029L120.744 3.8637L117.511 11.3498H118.776Z" fill="#474036"/>
<path d="M111.492 15.9305C111.492 16.0164 111.481 16.1062 111.457 16.1999C111.441 16.2936 111.399 16.3718 111.328 16.4342C110.977 16.6998 110.594 16.9458 110.18 17.1723C109.774 17.391 109.333 17.5823 108.856 17.7463C108.38 17.9104 107.864 18.0353 107.31 18.1212C106.763 18.215 106.173 18.2618 105.541 18.2618C104.119 18.2618 102.823 18.0548 101.651 17.6409C100.48 17.2192 99.4724 16.6256 98.6289 15.8602C97.7932 15.0948 97.1449 14.1771 96.6841 13.1071C96.2233 12.0293 95.9929 10.8343 95.9929 9.52221C95.9929 8.78024 96.0866 8.04999 96.2741 7.33145C96.4693 6.61291 96.7505 5.92952 97.1176 5.28127C97.4847 4.63303 97.9377 4.03945 98.4766 3.50055C99.0155 2.95384 99.6286 2.48132 100.316 2.083C101.011 1.68468 101.772 1.37618 102.6 1.15749C103.436 0.930997 104.338 0.817749 105.307 0.817749C105.681 0.817749 106.064 0.837275 106.455 0.876325C106.845 0.907566 107.232 0.958333 107.614 1.02862C107.997 1.09111 108.364 1.16921 108.716 1.26293C109.075 1.35665 109.415 1.46209 109.735 1.57924L110.532 3.74657L110.438 3.79343C110.133 3.52008 109.782 3.26624 109.383 3.03194C108.985 2.79763 108.56 2.59457 108.107 2.42274C107.654 2.25092 107.177 2.11815 106.677 2.02442C106.185 1.92289 105.685 1.87213 105.178 1.87213C104.194 1.87213 103.292 2.02833 102.471 2.34074C101.651 2.64533 100.945 3.09052 100.351 3.67628C99.7652 4.26204 99.3083 4.98058 98.9803 5.83189C98.6523 6.6832 98.4883 7.65167 98.4883 8.73729C98.4883 9.93225 98.6445 11.0413 98.9569 12.0644C99.2693 13.0876 99.734 13.974 100.351 14.7238C100.968 15.4736 101.737 16.0632 102.659 16.4928C103.588 16.9146 104.67 17.1254 105.904 17.1254C106.451 17.1254 106.939 17.0825 107.368 16.9966C107.798 16.9107 108.161 16.8052 108.458 16.6803C108.755 16.5475 108.977 16.4069 109.126 16.2585C109.282 16.1023 109.36 15.9617 109.36 15.8368V15.3799C109.36 14.8331 109.352 14.3606 109.337 13.9623C109.321 13.564 109.298 13.2203 109.266 12.9314C109.235 12.6346 109.2 12.3807 109.161 12.1699C109.122 11.959 109.075 11.7637 109.02 11.5841V11.5372H111.832V11.5841C111.785 11.7481 111.738 11.9434 111.691 12.1699C111.652 12.3886 111.617 12.6502 111.586 12.9548C111.555 13.2594 111.531 13.6187 111.516 14.0326C111.5 14.4387 111.492 14.9112 111.492 15.4501V15.9305Z" fill="#474036"/>
<path d="M78.9578 12.5399V10.8646H86.8773V12.5399H78.9578Z" fill="#474036"/>
<path d="M69.4571 15.9305C69.4571 16.0164 69.4454 16.1062 69.4219 16.1999C69.4063 16.2936 69.3633 16.3718 69.2931 16.4342C68.9416 16.6998 68.5589 16.9458 68.145 17.1723C67.7388 17.391 67.2976 17.5823 66.8211 17.7463C66.3447 17.9104 65.8292 18.0353 65.2747 18.1212C64.728 18.215 64.1383 18.2618 63.5057 18.2618C62.0843 18.2618 60.7878 18.0548 59.6162 17.6409C58.4447 17.2192 57.4372 16.6256 56.5937 15.8602C55.758 15.0948 55.1098 14.1771 54.649 13.1071C54.1882 12.0293 53.9578 10.8343 53.9578 9.52221C53.9578 8.78024 54.0515 8.04999 54.2389 7.33145C54.4342 6.61291 54.7154 5.92952 55.0824 5.28127C55.4495 4.63303 55.9025 4.03945 56.4414 3.50055C56.9803 2.95384 57.5934 2.48132 58.2807 2.083C58.9758 1.68468 59.7373 1.37618 60.5652 1.15749C61.4009 0.930997 62.3029 0.817749 63.2714 0.817749C63.6463 0.817749 64.029 0.837275 64.4195 0.876325C64.81 0.907566 65.1966 0.958333 65.5793 1.02862C65.962 1.09111 66.3291 1.16921 66.6805 1.26293C67.0398 1.35665 67.3796 1.46209 67.6998 1.57924L68.4964 3.74657L68.4027 3.79343C68.0981 3.52008 67.7466 3.26624 67.3483 3.03194C66.95 2.79763 66.5243 2.59457 66.0714 2.42274C65.6184 2.25092 65.1419 2.11815 64.6421 2.02442C64.1501 1.92289 63.6502 1.87213 63.1425 1.87213C62.1585 1.87213 61.2564 2.02833 60.4363 2.34074C59.6162 2.64533 58.9094 3.09052 58.3158 3.67628C57.7301 4.26204 57.2732 4.98058 56.9452 5.83189C56.6171 6.6832 56.4531 7.65167 56.4531 8.73729C56.4531 9.93225 56.6093 11.0413 56.9217 12.0644C57.2341 13.0876 57.6988 13.974 58.3158 14.7238C58.9328 15.4736 59.7022 16.0632 60.6238 16.4928C61.5532 16.9146 62.6349 17.1254 63.8689 17.1254C64.4156 17.1254 64.9037 17.0825 65.3333 16.9966C65.7629 16.9107 66.126 16.8052 66.4228 16.6803C66.7196 16.5475 66.9422 16.4069 67.0906 16.2585C67.2468 16.1023 67.3249 15.9617 67.3249 15.8368V15.3799C67.3249 14.8331 67.3171 14.3606 67.3015 13.9623C67.2858 13.564 67.2624 13.2203 67.2312 12.9314C67.1999 12.6346 67.1648 12.3807 67.1257 12.1699C67.0867 11.959 67.0398 11.7637 66.9851 11.5841V11.5372H69.7968V11.5841C69.75 11.7481 69.7031 11.9434 69.6562 12.1699C69.6172 12.3886 69.582 12.6502 69.5508 12.9548C69.5196 13.2594 69.4961 13.6187 69.4805 14.0326C69.4649 14.4387 69.4571 14.9112 69.4571 15.4501V15.9305Z" fill="#474036"/>
<path d="M37.5904 1.099L49.6571 13.939V5.69139C49.6571 5.02753 49.6493 4.44957 49.6337 3.95753C49.618 3.45768 49.5946 3.02812 49.5634 2.66885C49.5321 2.30177 49.4931 1.99717 49.4462 1.75506C49.4072 1.51294 49.3642 1.30987 49.3173 1.14586V1.099H51.4027V1.14586C51.3558 1.30987 51.3128 1.51294 51.2738 1.75506C51.2347 1.99717 51.1996 2.30177 51.1684 2.66885C51.1371 3.02812 51.1137 3.45768 51.0981 3.95753C51.0824 4.44957 51.0746 5.02753 51.0746 5.69139V18.133H50.6646L38.5979 5.30479V13.318C38.5979 13.9819 38.6057 14.5638 38.6213 15.0636C38.6369 15.5557 38.6603 15.9813 38.6916 16.3406C38.7228 16.6999 38.758 17.0006 38.797 17.2427C38.8361 17.4848 38.879 17.6879 38.9259 17.8519V17.8987H36.8406V17.8519C36.8874 17.6879 36.9304 17.4848 36.9694 17.2427C37.0163 17.0006 37.0554 16.6999 37.0866 16.3406C37.1178 15.9813 37.1413 15.5557 37.1569 15.0636C37.1725 14.5638 37.1803 13.9819 37.1803 13.318V5.69139C37.1803 5.02753 37.1725 4.44957 37.1569 3.95753C37.1413 3.45768 37.1178 3.02812 37.0866 2.66885C37.0554 2.30177 37.0163 1.99717 36.9694 1.75506C36.9304 1.51294 36.8874 1.30987 36.8406 1.14586V1.099H37.5904Z" fill="#474036"/>
<path d="M31.9229 5.69139C31.9229 5.02753 31.9151 4.44957 31.8995 3.95753C31.8839 3.45768 31.8604 3.02812 31.8292 2.66885C31.798 2.30177 31.7628 1.99717 31.7238 1.75506C31.6847 1.51294 31.6418 1.30987 31.5949 1.14586V1.099H33.6802V1.14586C33.6333 1.30987 33.5865 1.51294 33.5396 1.75506C33.5006 1.99717 33.4654 2.30177 33.4342 2.66885C33.4108 3.02812 33.3873 3.45768 33.3639 3.95753C33.3483 4.44957 33.3405 5.02753 33.3405 5.69139V12.0177C33.3405 13.1345 33.1804 14.0874 32.8601 14.8762C32.5399 15.665 32.0947 16.3133 31.5246 16.8209C30.9545 17.3208 30.2711 17.6839 29.4744 17.9104C28.6778 18.1447 27.807 18.2619 26.8619 18.2619C25.9169 18.2619 25.0343 18.1526 24.2143 17.9339C23.402 17.7152 22.6913 17.3637 22.0821 16.8795C21.4807 16.3875 21.0082 15.7548 20.6645 14.9816C20.3209 14.2006 20.1491 13.2517 20.1491 12.1348V5.69139C20.1491 5.02753 20.1413 4.44957 20.1256 3.95753C20.11 3.45768 20.0866 3.02812 20.0553 2.66885C20.0241 2.30177 19.9851 1.99717 19.9382 1.75506C19.8991 1.51294 19.8562 1.30987 19.8093 1.14586V1.099H22.621V1.14586C22.5741 1.30987 22.5273 1.51294 22.4804 1.75506C22.4414 1.99717 22.4062 2.30177 22.375 2.66885C22.3437 3.02812 22.3203 3.45768 22.3047 3.95753C22.2891 4.44957 22.2812 5.02753 22.2812 5.69139V12.2637C22.2812 13.1931 22.4179 13.9624 22.6913 14.5716C22.9724 15.173 23.3395 15.6533 23.7925 16.0126C24.2455 16.364 24.761 16.61 25.3389 16.7506C25.9169 16.8912 26.5066 16.9615 27.1079 16.9615C27.7093 16.9615 28.299 16.8912 28.8769 16.7506C29.4549 16.61 29.9665 16.364 30.4116 16.0126C30.8646 15.6533 31.2278 15.173 31.5012 14.5716C31.7823 13.9624 31.9229 13.1931 31.9229 12.2637V5.69139Z" fill="#474036"/>
<path d="M8.13745 1.09894C9.11372 1.09894 10.0822 1.09504 11.0428 1.08723C12.0113 1.07942 12.8978 1.07161 13.7022 1.0638C14.5067 1.04818 15.194 1.02865 15.7641 1.00522C16.3342 0.981791 16.7208 0.95055 16.9239 0.911499L16.3499 2.46963C16.0921 2.39934 15.7914 2.33686 15.4478 2.28219C15.151 2.23533 14.7878 2.19237 14.3583 2.15332C13.9365 2.10646 13.4484 2.08303 12.8939 2.08303C12.7064 2.08303 12.4799 2.09084 12.2144 2.10646C11.9566 2.11427 11.7067 2.12598 11.4646 2.1416C11.1834 2.15723 10.8984 2.17285 10.6094 2.18847V8.58501C11.4138 8.5772 12.1402 8.55377 12.7884 8.51472C13.4367 8.47567 13.9873 8.43662 14.4403 8.39757C14.9714 8.35071 15.44 8.29604 15.8461 8.23356L15.4829 9.93227C14.944 9.86198 14.3934 9.7956 13.8311 9.73311C13.3468 9.67844 12.8197 9.63158 12.2495 9.59253C11.6794 9.54567 11.1327 9.52224 10.6094 9.52224V16.8677C11.531 16.8677 12.3784 16.8287 13.1516 16.7506C13.9248 16.6725 14.6004 16.5827 15.1783 16.4811C15.85 16.3718 16.4631 16.2429 17.0176 16.0945L16.6779 17.9924C16.5842 17.9846 16.4436 17.9768 16.2561 17.969C16.0687 17.9612 15.8578 17.9533 15.6235 17.9455C15.397 17.9377 15.1549 17.9299 14.8972 17.9221C14.6472 17.9221 14.409 17.9182 14.1825 17.9104C13.956 17.9104 13.753 17.9065 13.5733 17.8987C13.4015 17.8987 13.2766 17.8987 13.1984 17.8987H8.13745V17.8518C8.18431 17.6878 8.22727 17.4847 8.26632 17.2426C8.31318 17.0005 8.35223 16.6998 8.38347 16.3405C8.41471 15.9813 8.43814 15.5556 8.45376 15.0636C8.46938 14.5637 8.47719 13.9819 8.47719 13.318V5.69134C8.47719 5.02747 8.46938 4.44952 8.45376 3.95747C8.43814 3.45762 8.41471 3.02806 8.38347 2.66879C8.35223 2.30171 8.31318 1.99712 8.26632 1.755C8.22727 1.51288 8.18431 1.30982 8.13745 1.1458V1.09894Z" fill="#474036"/>
<path d="M4.54236 15.4737C4.54236 16.528 4.43301 17.4418 4.21433 18.215C4.00345 18.9882 3.70276 19.6716 3.31225 20.2652C2.92955 20.8666 2.47266 21.4016 1.94156 21.8702C1.41828 22.3388 0.844234 22.7996 0.21942 23.2526L0.00854492 22.9597C0.547447 22.4677 0.973102 21.9561 1.28551 21.425C1.60573 20.8939 1.84784 20.3238 2.01186 19.7146C2.18368 19.1132 2.29302 18.465 2.33988 17.7699C2.38675 17.0669 2.41018 16.3015 2.41018 15.4737V5.69139C2.41018 5.02753 2.40237 4.44957 2.38675 3.95753C2.37112 3.45768 2.34769 3.02812 2.31645 2.66885C2.28521 2.30177 2.24616 1.99717 2.1993 1.75506C2.16025 1.51294 2.11729 1.30987 2.07043 1.14586V1.099H4.8821V1.14586C4.83524 1.30987 4.78838 1.51294 4.74152 1.75506C4.70246 1.99717 4.66732 2.30177 4.63608 2.66885C4.60484 3.02812 4.58141 3.45768 4.56579 3.95753C4.55017 4.44957 4.54236 5.02753 4.54236 5.69139V15.4737Z" fill="#474036"/>
</svg>
