<svg width="27" height="33" viewBox="0 0 27 33" fill="none" xmlns="http://www.w3.org/2000/svg">
<path fill-rule="evenodd" clip-rule="evenodd" d="M5.63706 0.244266C4.70108 1.18025 5.80339 5.79061 7.49253 8.00549C8.67332 9.55328 8.68135 9.70578 7.58216 9.70578C5.31333 9.70667 0.303435 12.3648 0.319934 13.5594C0.339554 14.9913 5.29951 17.4608 8.15651 17.4608H9.69983L8.48737 18.5934C6.98909 19.9931 5.77708 22.6566 5.47386 25.2162L5.24465 27.1546H6.4473C9.45279 27.1546 13.5972 24.8314 14.5171 22.6303C15.2185 20.951 15.2734 20.9947 15.1053 23.1043C14.9108 25.548 15.6346 28.1758 17.1016 30.3532C18.6213 32.6082 18.9277 32.6269 20.4487 30.5579C23.8858 25.8846 23.3779 21.5057 18.8487 16.7633C17.8914 15.7609 16.8996 14.548 16.645 14.0682C16.3904 13.588 15.8664 13.1955 15.4807 13.1955C14.765 13.1955 13.4995 12.0665 13.4901 11.4203C13.4875 11.2237 12.3967 10.5396 11.0666 9.89975C8.05617 8.45141 6.47941 6.18079 6.2074 2.90284C6.00673 0.48417 6.05043 0.460537 9.07955 1.3604C13.7229 2.73918 17.9903 10.3336 14.6584 11.2892C14.0029 11.4774 13.9151 11.5795 14.3869 11.6058C15.7942 11.6839 17.2082 12.7724 17.8798 14.2952C20.0483 19.2105 27.488 17.3274 26.9752 11.9929C26.667 8.78317 23.827 6.74577 20.7412 7.52033C19.432 7.84897 17.3727 10.0594 17.3727 11.1367C17.3727 11.629 17.2171 12.0321 17.0267 12.0321C16.5255 12.0321 16.2102 11.0141 16.2058 9.38338C16.2013 7.75711 14.7846 4.52197 13.4808 3.16147C11.9138 1.52584 6.40449 -0.523161 5.63706 0.244266ZM25.0983 9.3477C27.191 11.4408 26.6068 14.7375 23.8939 16.1404C20.5954 17.846 16.6067 13.8372 18.3154 10.533C19.7085 7.83916 23.0123 7.26169 25.0983 9.3477ZM13.4883 12.4763C17.1583 15.1897 8.53955 18.1172 3.86097 15.7462C0.475556 14.0308 0.4167 13.1737 3.57336 11.563C6.97126 9.82974 10.3268 10.1388 13.4883 12.4763ZM15.9993 14.7197C16.2669 15.1527 15.7014 15.546 13.883 16.1917C11.8086 16.9283 11.6909 16.7892 13.3408 15.5487C14.9403 14.346 15.6346 14.1297 15.9993 14.7197ZM17.964 16.7152C18.1683 17.3591 16.5157 20.1751 15.9333 20.1751C15.7291 20.1751 16.2031 16.2644 16.4604 15.83C16.736 15.3636 17.7188 15.9424 17.964 16.7152ZM20.2373 19.3363C22.4009 22.4586 22.5561 25.2206 20.7657 28.7269C19.1943 31.8042 18.8309 31.9117 17.4347 29.7106C15.0036 25.877 14.9581 22.6513 17.2885 19.3555C18.6079 17.4897 18.9558 17.4875 20.2373 19.3363Z" fill="#ECE5D3"/>
</svg>
