<svg width="108" height="24" viewBox="0 0 108 24" fill="none" xmlns="http://www.w3.org/2000/svg">
<path d="M104.43 17.8986V17.8518C104.446 17.8127 104.458 17.7541 104.465 17.676C104.473 17.5979 104.477 17.5276 104.477 17.4652C104.477 17.223 104.442 16.9575 104.372 16.6685C104.309 16.3717 104.184 16.0047 103.997 15.5673L102.579 12.3807C102.142 12.3651 101.56 12.3573 100.834 12.3573C100.107 12.3573 99.3224 12.3573 98.4789 12.3573C97.8619 12.3573 97.2645 12.3573 96.6865 12.3573C96.1164 12.3573 95.6009 12.3651 95.1401 12.3807L93.7928 15.4736C93.6757 15.7625 93.5507 16.0788 93.4179 16.4225C93.2852 16.7661 93.2188 17.1137 93.2188 17.4652C93.2188 17.5667 93.2266 17.6526 93.2422 17.7229C93.2578 17.7854 93.2735 17.8283 93.2891 17.8518V17.8986H90.8992V17.8518C91.0397 17.7034 91.2155 17.4417 91.4263 17.0668C91.6372 16.6841 91.8676 16.2077 92.1175 15.6376L98.8304 0.747437H99.7676L106.129 15.0635C106.277 15.3994 106.43 15.7274 106.586 16.0476C106.75 16.36 106.902 16.6412 107.043 16.8911C107.183 17.141 107.308 17.3519 107.418 17.5237C107.527 17.6956 107.601 17.8049 107.64 17.8518V17.8986H104.43ZM96.8388 11.3498C97.2918 11.3498 97.7565 11.3498 98.2329 11.3498C98.7093 11.342 99.174 11.3381 99.627 11.3381C100.088 11.3302 100.529 11.3263 100.951 11.3263C101.373 11.3185 101.755 11.3107 102.099 11.3029L98.807 3.8637L95.5735 11.3498H96.8388Z" fill="#474036"/>
<path d="M89.3985 15.9305C89.3985 16.0164 89.3867 16.1062 89.3633 16.1999C89.3477 16.2936 89.3047 16.3718 89.2344 16.4342C88.883 16.6998 88.5003 16.9458 88.0863 17.1723C87.6802 17.391 87.2389 17.5823 86.7625 17.7463C86.2861 17.9104 85.7706 18.0353 85.2161 18.1212C84.6694 18.215 84.0797 18.2618 83.4471 18.2618C82.0256 18.2618 80.7292 18.0548 79.5576 17.6409C78.3861 17.2192 77.3786 16.6256 76.5351 15.8602C75.6994 15.0948 75.0512 14.1771 74.5904 13.1071C74.1296 12.0293 73.8992 10.8343 73.8992 9.52221C73.8992 8.78024 73.9929 8.04999 74.1803 7.33145C74.3756 6.61291 74.6567 5.92952 75.0238 5.28127C75.3909 4.63303 75.8439 4.03945 76.3828 3.50055C76.9217 2.95384 77.5348 2.48132 78.2221 2.083C78.9172 1.68468 79.6787 1.37618 80.5066 1.15749C81.3423 0.930997 82.2443 0.817749 83.2128 0.817749C83.5877 0.817749 83.9704 0.837275 84.3609 0.876325C84.7514 0.907566 85.138 0.958333 85.5207 1.02862C85.9034 1.09111 86.2705 1.16921 86.6219 1.26293C86.9812 1.35665 87.321 1.46209 87.6412 1.57924L88.4378 3.74657L88.3441 3.79343C88.0395 3.52008 87.688 3.26624 87.2897 3.03194C86.8914 2.79763 86.4657 2.59457 86.0127 2.42274C85.5598 2.25092 85.0833 2.11815 84.5835 2.02442C84.0914 1.92289 83.5916 1.87213 83.0839 1.87213C82.0998 1.87213 81.1978 2.02833 80.3777 2.34074C79.5576 2.64533 78.8508 3.09052 78.2572 3.67628C77.6715 4.26204 77.2146 4.98058 76.8865 5.83189C76.5585 6.6832 76.3945 7.65167 76.3945 8.73729C76.3945 9.93225 76.5507 11.0413 76.8631 12.0644C77.1755 13.0876 77.6402 13.974 78.2572 14.7238C78.8742 15.4736 79.6435 16.0632 80.5651 16.4928C81.4946 16.9146 82.5763 17.1254 83.8103 17.1254C84.357 17.1254 84.8451 17.0825 85.2747 16.9966C85.7042 16.9107 86.0674 16.8052 86.3642 16.6803C86.661 16.5475 86.8836 16.4069 87.032 16.2585C87.1882 16.1023 87.2663 15.9617 87.2663 15.8368V15.3799C87.2663 14.8331 87.2585 14.3606 87.2429 13.9623C87.2272 13.564 87.2038 13.2203 87.1726 12.9314C87.1413 12.6346 87.1062 12.3807 87.0671 12.1699C87.0281 11.959 86.9812 11.7637 86.9265 11.5841V11.5372H89.7382V11.5841C89.6913 11.7481 89.6445 11.9434 89.5976 12.1699C89.5586 12.3886 89.5234 12.6502 89.4922 12.9548C89.4609 13.2594 89.4375 13.6187 89.4219 14.0326C89.4063 14.4387 89.3985 14.9112 89.3985 15.4501V15.9305Z" fill="#474036"/>
<path d="M70.3555 15.9305C70.3555 16.0164 70.3438 16.1062 70.3203 16.1999C70.3047 16.2936 70.2618 16.3718 70.1915 16.4342C69.84 16.6998 69.4573 16.9458 69.0434 17.1723C68.6373 17.391 68.196 17.5823 67.7196 17.7463C67.2431 17.9104 66.7277 18.0353 66.1731 18.1212C65.6264 18.215 65.0368 18.2618 64.4041 18.2618C62.9827 18.2618 61.6862 18.0548 60.5147 17.6409C59.3431 17.2192 58.3356 16.6256 57.4921 15.8602C56.6564 15.0948 56.0082 14.1771 55.5474 13.1071C55.0866 12.0293 54.8562 10.8343 54.8562 9.52221C54.8562 8.78024 54.9499 8.04999 55.1374 7.33145C55.3326 6.61291 55.6138 5.92952 55.9809 5.28127C56.3479 4.63303 56.8009 4.03945 57.3398 3.50055C57.8787 2.95384 58.4918 2.48132 59.1791 2.083C59.8742 1.68468 60.6357 1.37618 61.4636 1.15749C62.2993 0.930997 63.2014 0.817749 64.1698 0.817749C64.5447 0.817749 64.9274 0.837275 65.3179 0.876325C65.7084 0.907566 66.095 0.958333 66.4777 1.02862C66.8604 1.09111 67.2275 1.16921 67.579 1.26293C67.9382 1.35665 68.278 1.46209 68.5982 1.57924L69.3948 3.74657L69.3011 3.79343C68.9965 3.52008 68.6451 3.26624 68.2467 3.03194C67.8484 2.79763 67.4228 2.59457 66.9698 2.42274C66.5168 2.25092 66.0404 2.11815 65.5405 2.02442C65.0485 1.92289 64.5486 1.87213 64.041 1.87213C63.0569 1.87213 62.1548 2.02833 61.3347 2.34074C60.5147 2.64533 59.8078 3.09052 59.2143 3.67628C58.6285 4.26204 58.1716 4.98058 57.8436 5.83189C57.5156 6.6832 57.3515 7.65167 57.3515 8.73729C57.3515 9.93225 57.5077 11.0413 57.8201 12.0644C58.1326 13.0876 58.5973 13.974 59.2143 14.7238C59.8313 15.4736 60.6006 16.0632 61.5222 16.4928C62.4516 16.9146 63.5333 17.1254 64.7673 17.1254C65.314 17.1254 65.8022 17.0825 66.2317 16.9966C66.6613 16.9107 67.0244 16.8052 67.3212 16.6803C67.618 16.5475 67.8406 16.4069 67.989 16.2585C68.1452 16.1023 68.2233 15.9617 68.2233 15.8368V15.3799C68.2233 14.8331 68.2155 14.3606 68.1999 13.9623C68.1843 13.564 68.1608 13.2203 68.1296 12.9314C68.0983 12.6346 68.0632 12.3807 68.0242 12.1699C67.9851 11.959 67.9382 11.7637 67.8836 11.5841V11.5372H70.6952V11.5841C70.6484 11.7481 70.6015 11.9434 70.5547 12.1699C70.5156 12.3886 70.4805 12.6502 70.4492 12.9548C70.418 13.2594 70.3945 13.6187 70.3789 14.0326C70.3633 14.4387 70.3555 14.9112 70.3555 15.4501V15.9305Z" fill="#474036"/>
<path d="M38.4888 1.099L50.5555 13.939V5.69139C50.5555 5.02753 50.5477 4.44957 50.5321 3.95753C50.5165 3.45768 50.493 3.02812 50.4618 2.66885C50.4305 2.30177 50.3915 1.99717 50.3446 1.75506C50.3056 1.51294 50.2626 1.30987 50.2158 1.14586V1.099H52.3011V1.14586C52.2542 1.30987 52.2113 1.51294 52.1722 1.75506C52.1332 1.99717 52.098 2.30177 52.0668 2.66885C52.0355 3.02812 52.0121 3.45768 51.9965 3.95753C51.9809 4.44957 51.9731 5.02753 51.9731 5.69139V18.133H51.563L39.4963 5.30479V13.318C39.4963 13.9819 39.5041 14.5638 39.5197 15.0636C39.5353 15.5557 39.5588 15.9813 39.59 16.3406C39.6213 16.6999 39.6564 17.0006 39.6954 17.2427C39.7345 17.4848 39.7775 17.6879 39.8243 17.8519V17.8987H37.739V17.8519C37.7859 17.6879 37.8288 17.4848 37.8679 17.2427C37.9147 17.0006 37.9538 16.6999 37.985 16.3406C38.0163 15.9813 38.0397 15.5557 38.0553 15.0636C38.0709 14.5638 38.0787 13.9819 38.0787 13.318V5.69139C38.0787 5.02753 38.0709 4.44957 38.0553 3.95753C38.0397 3.45768 38.0163 3.02812 37.985 2.66885C37.9538 2.30177 37.9147 1.99717 37.8679 1.75506C37.8288 1.51294 37.7859 1.30987 37.739 1.14586V1.099H38.4888Z" fill="#474036"/>
<path d="M32.8213 5.69139C32.8213 5.02753 32.8135 4.44957 32.7979 3.95753C32.7823 3.45768 32.7589 3.02812 32.7276 2.66885C32.6964 2.30177 32.6612 1.99717 32.6222 1.75506C32.5831 1.51294 32.5402 1.30987 32.4933 1.14586V1.099H34.5786V1.14586C34.5318 1.30987 34.4849 1.51294 34.438 1.75506C34.399 1.99717 34.3639 2.30177 34.3326 2.66885C34.3092 3.02812 34.2857 3.45768 34.2623 3.95753C34.2467 4.44957 34.2389 5.02753 34.2389 5.69139V12.0177C34.2389 13.1345 34.0788 14.0874 33.7586 14.8762C33.4383 15.665 32.9932 16.3133 32.423 16.8209C31.8529 17.3208 31.1695 17.6839 30.3728 17.9104C29.5762 18.1447 28.7054 18.2619 27.7603 18.2619C26.8153 18.2619 25.9328 18.1526 25.1127 17.9339C24.3004 17.7152 23.5897 17.3637 22.9805 16.8795C22.3791 16.3875 21.9066 15.7548 21.563 14.9816C21.2193 14.2006 21.0475 13.2517 21.0475 12.1348V5.69139C21.0475 5.02753 21.0397 4.44957 21.0241 3.95753C21.0084 3.45768 20.985 3.02812 20.9538 2.66885C20.9225 2.30177 20.8835 1.99717 20.8366 1.75506C20.7976 1.51294 20.7546 1.30987 20.7077 1.14586V1.099H23.5194V1.14586C23.4726 1.30987 23.4257 1.51294 23.3788 1.75506C23.3398 1.99717 23.3046 2.30177 23.2734 2.66885C23.2422 3.02812 23.2187 3.45768 23.2031 3.95753C23.1875 4.44957 23.1797 5.02753 23.1797 5.69139V12.2637C23.1797 13.1931 23.3163 13.9624 23.5897 14.5716C23.8709 15.173 24.238 15.6533 24.6909 16.0126C25.1439 16.364 25.6594 16.61 26.2374 16.7506C26.8153 16.8912 27.405 16.9615 28.0064 16.9615C28.6077 16.9615 29.1974 16.8912 29.7754 16.7506C30.3533 16.61 30.8649 16.364 31.3101 16.0126C31.7631 15.6533 32.1262 15.173 32.3996 14.5716C32.6808 13.9624 32.8213 13.1931 32.8213 12.2637V5.69139Z" fill="#474036"/>
<path d="M9.03587 1.09894C10.0121 1.09894 10.9806 1.09504 11.9413 1.08723C12.9097 1.07942 13.7962 1.07161 14.6006 1.0638C15.4051 1.04818 16.0924 1.02865 16.6625 1.00522C17.2327 0.981791 17.6193 0.95055 17.8223 0.911499L17.2483 2.46963C16.9905 2.39934 16.6899 2.33686 16.3462 2.28219C16.0494 2.23533 15.6862 2.19237 15.2567 2.15332C14.8349 2.10646 14.3468 2.08303 13.7923 2.08303C13.6048 2.08303 13.3783 2.09084 13.1128 2.10646C12.8551 2.11427 12.6051 2.12598 12.363 2.1416C12.0818 2.15723 11.7968 2.17285 11.5078 2.18847V8.58501C12.3122 8.5772 13.0386 8.55377 13.6868 8.51472C14.3351 8.47567 14.8857 8.43662 15.3387 8.39757C15.8698 8.35071 16.3384 8.29604 16.7445 8.23356L16.3813 9.93227C15.8424 9.86198 15.2918 9.7956 14.7295 9.73311C14.2453 9.67844 13.7181 9.63158 13.1479 9.59253C12.5778 9.54567 12.0311 9.52224 11.5078 9.52224V16.8677C12.4294 16.8677 13.2768 16.8287 14.05 16.7506C14.8232 16.6725 15.4988 16.5827 16.0768 16.4811C16.7484 16.3718 17.3615 16.2429 17.916 16.0945L17.5763 17.9924C17.4826 17.9846 17.342 17.9768 17.1546 17.969C16.9671 17.9612 16.7562 17.9533 16.5219 17.9455C16.2954 17.9377 16.0533 17.9299 15.7956 17.9221C15.5457 17.9221 15.3074 17.9182 15.081 17.9104C14.8545 17.9104 14.6514 17.9065 14.4718 17.8987C14.2999 17.8987 14.175 17.8987 14.0969 17.8987H9.03587V17.8518C9.08273 17.6878 9.12569 17.4847 9.16474 17.2426C9.2116 17.0005 9.25065 16.6998 9.28189 16.3405C9.31313 15.9813 9.33657 15.5556 9.35219 15.0636C9.36781 14.5637 9.37562 13.9819 9.37562 13.318V5.69134C9.37562 5.02747 9.36781 4.44952 9.35219 3.95747C9.33657 3.45762 9.31313 3.02806 9.28189 2.66879C9.25065 2.30171 9.2116 1.99712 9.16474 1.755C9.12569 1.51288 9.08273 1.30982 9.03587 1.1458V1.09894Z" fill="#474036"/>
<path d="M5.44078 15.4737C5.44078 16.528 5.33144 17.4418 5.11275 18.215C4.90188 18.9882 4.60118 19.6716 4.21067 20.2652C3.82798 20.8666 3.37108 21.4016 2.83999 21.8702C2.3167 22.3388 1.74266 22.7996 1.11784 23.2526L0.906967 22.9597C1.44587 22.4677 1.87152 21.9561 2.18393 21.425C2.50415 20.8939 2.74626 20.3238 2.91028 19.7146C3.0821 19.1132 3.19145 18.465 3.23831 17.7699C3.28517 17.0669 3.3086 16.3015 3.3086 15.4737V5.69139C3.3086 5.02753 3.30079 4.44957 3.28517 3.95753C3.26955 3.45768 3.24612 3.02812 3.21488 2.66885C3.18363 2.30177 3.14458 1.99717 3.09772 1.75506C3.05867 1.51294 3.01572 1.30987 2.96886 1.14586V1.099H5.78052V1.14586C5.73366 1.30987 5.6868 1.51294 5.63994 1.75506C5.60089 1.99717 5.56574 2.30177 5.5345 2.66885C5.50326 3.02812 5.47983 3.45768 5.46421 3.95753C5.44859 4.44957 5.44078 5.02753 5.44078 5.69139V15.4737Z" fill="#474036"/>
</svg>
