<svg width="33" height="33" viewBox="0 0 33 33" fill="none" xmlns="http://www.w3.org/2000/svg">
<path d="M27.3914 15.7606L13.3914 30.7606C13.243 30.9189 13.0472 31.0247 12.8334 31.062C12.6197 31.0993 12.3996 31.066 12.2064 30.9672C12.0132 30.8684 11.8574 30.7095 11.7625 30.5144C11.6675 30.3193 11.6386 30.0986 11.6801 29.8856L13.5126 20.7194L6.30889 18.0144C6.15418 17.9565 6.01621 17.8612 5.90732 17.737C5.79842 17.6128 5.72199 17.4636 5.68485 17.3026C5.64771 17.1417 5.65101 16.974 5.69447 16.8146C5.73793 16.6553 5.82018 16.5092 5.93389 16.3894L19.9339 1.38936C20.0823 1.23103 20.2781 1.12525 20.4918 1.08798C20.7056 1.05071 20.9257 1.08398 21.1189 1.18276C21.312 1.28154 21.4679 1.44048 21.5628 1.63559C21.6577 1.8307 21.6866 2.05139 21.6451 2.26436L19.8076 11.4406L27.0114 14.1419C27.165 14.2001 27.3018 14.2953 27.4099 14.419C27.5179 14.5427 27.5938 14.6911 27.6309 14.8512C27.668 15.0112 27.665 15.1778 27.6224 15.3365C27.5798 15.4951 27.4987 15.6408 27.3864 15.7606H27.3914Z" fill="#ECE5D3"/>
</svg>
