<svg width="40" height="48" viewBox="0 0 40 48" fill="none" xmlns="http://www.w3.org/2000/svg">
<path fill-rule="evenodd" clip-rule="evenodd" d="M7.80959 0.490114C6.43487 1.86484 8.05389 8.6363 10.5348 11.8894C12.2691 14.1627 12.2809 14.3867 10.6665 14.3867C7.33411 14.388 -0.0241732 18.2921 5.97083e-05 20.0467C0.0288772 22.1498 7.31381 25.7768 11.51 25.7768H13.7768L11.996 27.4404C9.79538 29.4963 8.01525 33.4082 7.56989 37.1676L7.23324 40.0147H8.99963C13.4139 40.0147 19.501 36.6024 20.8521 33.3696C21.8824 30.9031 21.9629 30.9673 21.716 34.0658C21.4304 37.6549 22.4934 41.5145 24.6482 44.7126C26.8802 48.0246 27.3302 48.0521 29.5642 45.0132C34.6125 38.1494 33.8665 31.7178 27.2142 24.7525C25.8081 23.2802 24.3515 21.4987 23.9775 20.794C23.6035 20.0887 22.834 19.5123 22.2675 19.5123C21.2163 19.5123 19.3575 17.854 19.3438 16.905C19.3399 16.6161 17.7379 15.6115 15.7842 14.6716C11.3627 12.5444 9.04679 9.20938 8.64727 4.39489C8.35255 0.842473 8.41673 0.807761 12.8658 2.12944C19.6857 4.15452 25.9535 15.3089 21.0597 16.7124C20.097 16.9888 19.968 17.1388 20.6609 17.1774C22.7279 17.292 24.8047 18.8908 25.791 21.1274C28.976 28.3468 39.9031 25.581 39.1499 17.7459C38.6974 13.0316 34.526 10.0392 29.9938 11.1768C28.0709 11.6595 25.0464 14.9061 25.0464 16.4884C25.0464 17.2115 24.8178 17.8036 24.5381 17.8036C23.802 17.8036 23.3389 16.3083 23.3324 13.9132C23.3258 11.5246 21.2451 6.77299 19.33 4.77476C17.0286 2.37242 8.93675 -0.637044 7.80959 0.490114ZM36.3933 13.8608C39.4669 16.9351 38.6089 21.7771 34.6243 23.8375C29.7796 26.3427 23.9212 20.4548 26.4309 15.6016C28.477 11.6451 33.3294 10.797 36.3933 13.8608ZM19.3412 18.4559C24.7313 22.4412 12.0726 26.7409 5.20096 23.2586C0.228631 20.739 0.142186 19.4802 4.77853 17.1145C9.76919 14.5688 14.6976 15.0227 19.3412 18.4559ZM23.0292 21.7509C23.4221 22.3868 22.5917 22.9645 19.9208 23.9129C16.874 24.9948 16.7011 24.7905 19.1244 22.9684C21.4737 21.2021 22.4934 20.8844 23.0292 21.7509ZM25.9148 24.6818C26.2148 25.6275 23.7876 29.7635 22.9322 29.7635C22.6323 29.7635 23.3285 24.0196 23.7064 23.3817C24.1111 22.6966 25.5546 23.5468 25.9148 24.6818ZM29.2537 28.5315C32.4315 33.1174 32.6594 37.1742 30.0298 42.324C27.7218 46.8438 27.188 47.0016 25.1374 43.7688C21.5667 38.1383 21.4999 33.4004 24.9226 28.5597C26.8606 25.8194 27.3714 25.8161 29.2537 28.5315Z" fill="#22333C"/>
</svg>
