<svg width="30" height="31" viewBox="0 0 30 31" fill="none" xmlns="http://www.w3.org/2000/svg">
<path d="M28.075 8C27.1125 8.4375 26.075 8.725 25 8.8625C26.1 8.2 26.95 7.15 27.35 5.8875C26.3125 6.5125 25.1625 6.95 23.95 7.2C22.9625 6.125 21.575 5.5 20 5.5C17.0625 5.5 14.6625 7.9 14.6625 10.8625C14.6625 11.2875 14.7125 11.7 14.8 12.0875C10.35 11.8625 6.38749 9.725 3.74999 6.4875C3.28749 7.275 3.02499 8.2 3.02499 9.175C3.02499 11.0375 3.96249 12.6875 5.41249 13.625C4.52499 13.625 3.69999 13.375 2.97499 13V13.0375C2.97499 15.6375 4.82499 17.8125 7.27499 18.3C6.48854 18.5162 5.66253 18.5461 4.86249 18.3875C5.202 19.4531 5.86691 20.3855 6.76376 21.0537C7.66061 21.7218 8.7443 22.0921 9.86249 22.1125C7.96707 23.6131 5.6175 24.4242 3.19999 24.4125C2.77499 24.4125 2.34999 24.3875 1.92499 24.3375C4.29999 25.8625 7.12499 26.75 10.15 26.75C20 26.75 25.4125 18.575 25.4125 11.4875C25.4125 11.25 25.4125 11.025 25.4 10.7875C26.45 10.0375 27.35 9.0875 28.075 8Z" fill="#22333C"/>
</svg>
