<svg width="21" height="21" viewBox="0 0 21 21" fill="none" xmlns="http://www.w3.org/2000/svg">
<path d="M10.2053 15.8031C10.2053 15.3058 10.4029 14.8289 10.7545 14.4773C11.1061 14.1257 11.583 13.9281 12.0803 13.9281H15.6905C16.1152 13.9282 16.5273 13.7841 16.8594 13.5194C17.1915 13.2547 17.4239 12.8851 17.5186 12.4711C17.6476 11.9026 17.7103 11.3212 17.7053 10.7383C17.6702 6.61171 14.2553 3.26171 10.1272 3.30311C8.15164 3.32369 6.264 4.12295 4.87433 5.52724C3.48466 6.93154 2.70522 8.82745 2.70532 10.8031C2.70532 14.0695 4.7936 16.5406 7.70532 17.5695C7.98802 17.6695 8.29057 17.7002 8.58758 17.659C8.8846 17.6179 9.16741 17.5061 9.4123 17.3331C9.65719 17.16 9.85701 16.9308 9.99499 16.6646C10.133 16.3984 10.2051 16.103 10.2053 15.8031Z" stroke="#22333C" stroke-width="0.9375" stroke-linecap="round" stroke-linejoin="round"/>
<path d="M10.2053 7.3656C10.5505 7.3656 10.8303 7.08578 10.8303 6.7406C10.8303 6.39542 10.5505 6.1156 10.2053 6.1156C9.86014 6.1156 9.58032 6.39542 9.58032 6.7406C9.58032 7.08578 9.86014 7.3656 10.2053 7.3656Z" fill="#22333C"/>
<path d="M7.33423 8.6156C7.33423 8.92842 7.08064 9.18201 6.76782 9.18201C6.455 9.18201 6.20142 8.92842 6.20142 8.6156C6.20142 8.30278 6.455 8.04919 6.76782 8.04919C7.08064 8.04919 7.33423 8.30278 7.33423 8.6156Z" fill="#343330" stroke="#22333C" stroke-width="0.117188"/>
<path d="M6.76782 13.6156C7.113 13.6156 7.39282 13.3358 7.39282 12.9906C7.39282 12.6454 7.113 12.3656 6.76782 12.3656C6.42264 12.3656 6.14282 12.6454 6.14282 12.9906C6.14282 13.3358 6.42264 13.6156 6.76782 13.6156Z" fill="#343330"/>
<path d="M13.6428 9.2406C13.988 9.2406 14.2678 8.96078 14.2678 8.6156C14.2678 8.27042 13.988 7.9906 13.6428 7.9906C13.2976 7.9906 13.0178 8.27042 13.0178 8.6156C13.0178 8.96078 13.2976 9.2406 13.6428 9.2406Z" fill="#343330"/>
</svg>
