<svg width="9" height="8" viewBox="0 0 9 8" fill="none" xmlns="http://www.w3.org/2000/svg">
<path opacity="0.2" d="M2.99738 1.46375V6.60426C2.99814 6.64528 3.0097 6.68537 3.0309 6.7205C3.0521 6.75563 3.08219 6.78454 3.11813 6.80433C3.15407 6.82412 3.19459 6.83408 3.23561 6.83322C3.27663 6.83235 3.31669 6.82068 3.35176 6.79939L7.55424 4.22914C7.58781 4.20882 7.61557 4.18018 7.63484 4.146C7.6541 4.11182 7.66423 4.07324 7.66423 4.034C7.66423 3.99477 7.6541 3.95619 7.63484 3.92201C7.61557 3.88782 7.58781 3.85919 7.55424 3.83887L3.35176 1.26862C3.31669 1.24733 3.27663 1.23566 3.23561 1.23479C3.19459 1.23393 3.15407 1.24389 3.11813 1.26368C3.08219 1.28347 3.0521 1.31238 3.0309 1.34751C3.0097 1.38263 2.99814 1.42273 2.99738 1.46375Z" fill="#22333C"/>
<path d="M2.99738 1.46375V6.60426C2.99814 6.64528 3.0097 6.68537 3.0309 6.7205C3.0521 6.75563 3.08219 6.78454 3.11813 6.80433C3.15407 6.82412 3.19459 6.83408 3.23561 6.83322C3.27663 6.83235 3.31669 6.82068 3.35176 6.79939L7.55424 4.22914C7.58781 4.20882 7.61557 4.18018 7.63484 4.146C7.6541 4.11182 7.66423 4.07324 7.66423 4.034C7.66423 3.99477 7.6541 3.95619 7.63484 3.92201C7.61557 3.88782 7.58781 3.85919 7.55424 3.83887L3.35176 1.26862C3.31669 1.24733 3.27663 1.23566 3.23561 1.23479C3.19459 1.23393 3.15407 1.24389 3.11813 1.26368C3.08219 1.28347 3.0521 1.31238 3.0309 1.34751C3.0097 1.38263 2.99814 1.42273 2.99738 1.46375Z" stroke="#22333C" stroke-width="0.466683" stroke-linecap="round" stroke-linejoin="round"/>
</svg>
