<svg width="38" height="37" viewBox="0 0 38 37" fill="none" xmlns="http://www.w3.org/2000/svg">
<path d="M10.9983 5.7957V31.17C11.0021 31.3724 11.0591 31.5703 11.1638 31.7437C11.2684 31.9171 11.4169 32.0598 11.5943 32.1575C11.7717 32.2552 11.9718 32.3044 12.1742 32.3001C12.3767 32.2958 12.5745 32.2382 12.7476 32.1331L33.4916 19.446C33.6573 19.3457 33.7943 19.2044 33.8894 19.0357C33.9845 18.8669 34.0345 18.6765 34.0345 18.4828C34.0345 18.2891 33.9845 18.0987 33.8894 17.93C33.7943 17.7613 33.6573 17.6199 33.4916 17.5196L12.7476 4.8325C12.5745 4.72741 12.3767 4.66982 12.1742 4.66554C11.9718 4.66126 11.7717 4.71044 11.5943 4.80812C11.4169 4.9058 11.2684 5.04853 11.1638 5.22192C11.0591 5.3953 11.0021 5.59321 10.9983 5.7957Z" stroke="#343330" stroke-width="1.84289" stroke-linecap="round" stroke-linejoin="round"/>
</svg>
