<svg width="8" height="8" viewBox="0 0 8 8" fill="none" xmlns="http://www.w3.org/2000/svg">
<path d="M7.49728 4.03395C7.49747 4.11318 7.47716 4.19111 7.43831 4.26016C7.39947 4.32921 7.34342 4.38703 7.27561 4.428L3.07313 6.99884C3.00227 7.04223 2.92113 7.06591 2.83806 7.06745C2.75499 7.06899 2.67302 7.04833 2.60061 7.00759C2.52889 6.96749 2.46915 6.90901 2.42752 6.83817C2.38589 6.76732 2.36389 6.68667 2.36377 6.6045V1.4634C2.36389 1.38123 2.38589 1.30058 2.42752 1.22973C2.46915 1.15889 2.52889 1.10041 2.60061 1.06031C2.67302 1.01957 2.75499 0.998908 2.83806 1.00045C2.92113 1.00198 3.00227 1.02567 3.07313 1.06906L7.27561 3.63989C7.34342 3.68087 7.39947 3.73869 7.43831 3.80774C7.47716 3.87679 7.49747 3.95472 7.49728 4.03395Z" fill="#22333C"/>
</svg>
