<svg width="8" height="8" viewBox="0 0 8 8" fill="none" xmlns="http://www.w3.org/2000/svg">
<path d="M2.39771 1.46375V6.60426C2.39847 6.64528 2.41003 6.68537 2.43123 6.7205C2.45243 6.75563 2.48252 6.78454 2.51846 6.80433C2.5544 6.82412 2.59492 6.83408 2.63594 6.83322C2.67696 6.83235 2.71702 6.82068 2.75209 6.79939L6.95457 4.22914C6.98814 4.20882 7.0159 4.18018 7.03517 4.146C7.05443 4.11182 7.06455 4.07324 7.06455 4.034C7.06455 3.99477 7.05443 3.95619 7.03517 3.92201C7.0159 3.88782 6.98814 3.85919 6.95457 3.83887L2.75209 1.26862C2.71702 1.24733 2.67696 1.23566 2.63594 1.23479C2.59492 1.23393 2.5544 1.24389 2.51846 1.26368C2.48252 1.28347 2.45243 1.31238 2.43123 1.34751C2.41003 1.38263 2.39847 1.42273 2.39771 1.46375Z" stroke="#22333C" stroke-width="0.466683" stroke-linecap="round" stroke-linejoin="round"/>
</svg>
