<svg width="21" height="21" viewBox="0 0 21 21" fill="none" xmlns="http://www.w3.org/2000/svg">
<path d="M10.3218 6.125C11.3573 6.125 12.1968 5.28553 12.1968 4.25C12.1968 3.21447 11.3573 2.375 10.3218 2.375C9.28624 2.375 8.44678 3.21447 8.44678 4.25C8.44678 5.28553 9.28624 6.125 10.3218 6.125Z" stroke="#22333C" stroke-width="0.9375" stroke-linecap="round" stroke-linejoin="round"/>
<path d="M4.07178 11.75C5.10731 11.75 5.94678 10.9105 5.94678 9.875C5.94678 8.83947 5.10731 8 4.07178 8C3.03624 8 2.19678 8.83947 2.19678 9.875C2.19678 10.9105 3.03624 11.75 4.07178 11.75Z" fill="#22333C" stroke="#343330" stroke-width="0.9375" stroke-linecap="round" stroke-linejoin="round"/>
<path d="M13.4468 18.625C14.4823 18.625 15.3218 17.7855 15.3218 16.75C15.3218 15.7145 14.4823 14.875 13.4468 14.875C12.4112 14.875 11.5718 15.7145 11.5718 16.75C11.5718 17.7855 12.4112 18.625 13.4468 18.625Z" stroke="#22333C" stroke-width="0.9375" stroke-linecap="round" stroke-linejoin="round"/>
<path d="M17.1968 8C18.2323 8 19.0718 7.16053 19.0718 6.125C19.0718 5.08947 18.2323 4.25 17.1968 4.25C16.1612 4.25 15.3218 5.08947 15.3218 6.125C15.3218 7.16053 16.1612 8 17.1968 8Z" stroke="#22333C" stroke-width="0.9375" stroke-linecap="round" stroke-linejoin="round"/>
<path d="M15.3882 5.6321L12.1304 4.74304" stroke="#22333C" stroke-width="0.9375" stroke-linecap="round" stroke-linejoin="round"/>
<path d="M8.92808 5.50476L5.46558 8.62039" stroke="#343330" stroke-width="0.9375" stroke-linecap="round" stroke-linejoin="round"/>
<path d="M5.58447 10.9836L11.9345 15.6415" stroke="#343330" stroke-width="0.9375" stroke-linecap="round" stroke-linejoin="round"/>
<path d="M14.071 14.9813L16.5726 7.8938" stroke="#343330" stroke-width="0.9375" stroke-linecap="round" stroke-linejoin="round"/>
</svg>
