<svg width="153" height="37" viewBox="0 0 153 37" fill="none" xmlns="http://www.w3.org/2000/svg">
<path d="M111.529 0.849965C111.699 0.84043 111.857 0.87911 111.989 1.02316C112.013 1.05006 112.033 1.08343 112.056 1.11309C112.078 1.10418 112.094 1.10542 112.093 1.14004C112.093 1.14712 112.093 1.15497 112.093 1.16197C112.428 1.6497 112.525 2.44302 112.559 3.12008C112.575 3.44829 112.119 3.32799 111.673 3.20136C111.447 3.32225 111.142 3.18258 110.861 3.13258C110.826 3.20315 110.857 3.33147 110.991 3.55146C108.371 4.09258 72.6201 8.85902 70.0075 9.46345C72.6163 9.33251 108.358 5.01645 110.969 4.96215C111.287 4.81111 111.595 4.68738 111.744 5.01372C111.857 5.26067 111.817 5.53088 111.724 5.80921L117.763 5.56533C119.324 5.31073 120.881 5.01926 122.447 4.83342C124.117 4.62215 125.789 4.41227 127.466 4.33578C128.329 4.30096 128.525 5.66645 127.999 6.20264C129.306 6.29155 130.613 6.38055 131.921 6.46761C131.979 6.37509 132.036 6.28344 132.11 6.18289C132.4 5.78669 132.927 6.1249 133.335 6.13828C134.273 6.16909 136.778 6.40801 137.712 6.49213C137.782 6.59268 137.859 6.68671 137.932 6.78307C138.204 6.78848 138.476 6.79413 138.748 6.79078C138.792 6.79024 138.895 6.66211 138.865 6.70722C138.714 6.93676 138.558 7.16011 138.402 7.38407C138.725 7.78835 139.038 8.20409 139.257 8.71706C139.349 8.93176 138.91 8.863 138.73 8.86917C138.272 8.88483 137.813 8.87225 137.355 8.85319C137.282 9.10036 137.193 9.29908 137.093 9.46345C137.107 9.60367 137.12 9.75188 137.126 9.9155C137.136 10.1559 136.965 10.0806 136.721 9.87905C136.026 10.3833 135.016 9.98511 134.05 9.94788C132.9 9.90353 131.75 9.84838 130.6 9.79551C130.515 9.89204 130.428 9.98308 130.352 10.0493C130.028 10.329 129.588 10.1182 129.206 10.1411C128.715 10.1705 128.223 10.1892 127.731 10.2063C128.354 10.2678 128.977 10.329 129.598 10.4088C130.15 10.4633 130.702 10.5178 131.253 10.5719C131.683 10.558 132.105 10.5855 132.512 10.6966C132.545 10.7 132.578 10.703 132.611 10.7064C133.096 10.7569 133.667 10.5248 134.129 10.6605C134.342 10.662 134.532 10.7296 134.666 10.95C134.674 10.9637 134.678 10.9819 134.686 10.9964C134.818 10.9057 135.016 11.0011 135.214 11.0986C135.389 11.0869 135.584 11.1795 135.779 11.2724C135.923 11.2972 136.025 11.3161 136.141 11.3366C136.193 11.3428 136.28 11.3514 136.33 11.3574C137.613 11.5145 138.32 11.2947 138.836 11.8055C139.01 11.8265 139.183 11.8488 139.357 11.8698C139.483 11.8485 139.712 11.7456 139.657 11.8666C139.652 11.8788 139.646 11.8924 139.64 11.9046C139.809 11.9251 139.978 11.9467 140.147 11.9671C140.143 12.0347 140.149 12.0827 140.149 12.1409C140.546 12.1599 141.006 12.1766 141.32 12.1943C141.662 12.2136 142.067 12.0353 142.407 12.0651C142.714 11.9764 142.958 12.0078 143.057 12.32C143.163 12.6554 143.181 13.0825 143.12 13.4762C143.111 13.8092 143.049 14.1386 142.934 14.3905C142.822 14.6347 142.626 14.6434 142.389 14.5409C142.04 14.5591 141.627 14.2983 141.266 14.2726C141.174 14.5232 141.057 14.7539 140.936 14.9108C140.648 15.2851 140.144 14.8836 139.747 14.8702C139.004 14.8144 138.079 14.7444 137.18 14.6708C136.193 14.7635 135.203 14.7962 134.214 14.8531C133.274 14.9072 132.335 14.9515 131.395 15.0003C132.457 15.2113 133.518 15.4445 134.577 15.6851C139.072 15.97 143.569 16.2432 148.065 16.5056C148.859 16.5448 149.66 16.4654 150.446 16.6231C150.667 16.6672 150.906 16.7126 151.139 16.7609C151.328 16.6532 151.499 16.5785 151.533 16.7864C151.537 16.8107 151.535 16.8339 151.536 16.8578C152.336 17.089 152.851 17.5332 151.775 18.8405C151.571 19.0884 151.238 18.9599 150.968 19.0153C149.803 19.2553 148.398 19.523 147.263 19.7434C146.149 19.9438 145.192 20.1198 144.229 20.2885C144.576 20.3504 144.83 20.3964 145.226 20.4676C146.759 20.7793 148.305 20.9425 149.84 21.2214C150.209 21.2884 150.632 21.1794 150.942 21.4662C151.26 21.7602 151.847 22.4722 151.554 22.8082C151.347 23.0466 151.065 23.2193 150.742 23.3488C150.746 23.4049 150.741 23.4612 150.713 23.5182C150.599 23.745 150.389 23.655 150.166 23.5264C148.529 23.8848 146.248 23.4396 145.441 23.3759C141.863 23.0194 138.285 22.6392 134.707 22.2615C134.815 22.3441 134.92 22.4313 135.029 22.5068C134.905 22.7862 134.812 23.101 134.695 23.389C134.975 23.3983 135.316 23.409 135.519 23.4158C135.5 23.1931 135.461 22.9242 135.374 22.549C136.319 22.6515 137.263 22.7505 138.207 22.8563C139.481 22.9991 140.728 22.9005 141.846 23.5195C142.107 23.5325 142.366 23.5639 142.623 23.6262C142.764 23.6605 142.541 23.7403 142.32 23.8367C142.679 24.119 143.024 24.4918 143.348 25.0011C143.544 25.3102 142.913 25.6385 142.621 25.7048C141.893 25.87 141.151 25.8032 140.407 25.6853C140.38 25.8373 140.269 26.0379 140.031 26.3059C140.989 27.6051 139.991 27.3483 139.562 27.2478C139.37 27.246 139.178 27.2515 138.986 27.2532C138.713 27.4563 138.389 27.3745 138.062 27.267C137.209 27.2912 136.355 27.3304 135.501 27.3558C136.011 27.5743 136.292 27.8995 134.876 28.664C135.102 29.1302 135.19 29.4727 134.902 29.2577C134.599 29.2013 134.296 29.1495 133.993 29.0938C133.897 29.1369 133.835 29.1719 133.731 29.2173C132.981 29.5443 132.158 29.0976 131.371 29.0412C131.336 29.0387 130.364 28.9726 129.56 28.9169C129.685 28.945 129.81 28.974 129.934 29.0025C130.057 29.0299 130.18 29.0559 130.302 29.0843C130.688 29.0967 131.175 28.8627 131.409 29.2663C131.42 29.2842 131.427 29.2988 131.437 29.3164C131.912 29.3617 132.536 29.3661 131.93 30.3179C132.403 31.5689 131.613 31.4601 131.081 31.3589C130.803 31.5544 130.407 31.1953 130.076 31.1541C129.017 31.0222 127.901 30.9242 126.842 30.8232C126.58 30.8007 126.318 30.7788 126.056 30.7557L126.062 30.9903L109.671 31.6522C109.547 31.776 109.379 31.9135 109.178 32.0605C109.2 32.3593 109.116 32.5101 108.847 32.2876C108.758 32.3455 108.676 32.4022 108.575 32.4635C107.89 32.8811 107.075 32.3884 106.325 32.339C105.463 32.2822 104.6 32.2106 103.738 32.1453C103.757 32.7928 103.617 33.4897 103.331 33.9998C103.329 34.0132 103.33 34.0212 103.328 34.0348C103.323 34.0892 103.301 34.1069 103.27 34.1038C103.262 34.1157 103.256 34.1296 103.248 34.1412C103.145 34.2969 102.991 34.2892 102.824 34.2469C102.714 34.6315 102.56 34.9763 102.316 35.175C102.128 35.3282 98.8391 34.945 98.821 34.9432C97.8563 34.8147 97.1322 34.7244 96.2653 34.5767C96.1034 34.6137 95.929 34.5826 95.7492 34.5212C95.5956 34.5389 95.4274 34.5727 95.4082 34.405C95.4076 34.3993 95.4073 34.3959 95.4067 34.3904C95.26 34.3334 95.1147 34.2829 94.9751 34.2648C93.9319 34.1299 92.8887 33.9881 91.8455 33.8533C86.682 33.1861 88.5743 33.4216 83.0792 32.8203C82.8455 32.7968 82.6117 32.7773 82.378 32.7543L75.5739 33.0291C77.0539 33.2884 78.6633 33.5731 79.1679 33.6794C79.6622 33.7836 80.1513 33.9335 80.643 34.0603C80.806 34.162 81.1988 34.1371 81.1319 34.3655C80.9147 35.1079 80.7091 35.5945 80.49 35.915C80.543 36.2244 80.5233 36.3778 80.3756 36.1032C80.3676 36.101 80.359 36.099 80.3508 36.0969C79.7678 36.7476 79.0576 36.3694 77.7799 36.3104C76.8621 36.2679 75.9448 36.2113 75.0272 36.1574C69.8229 35.8523 74.5645 36.1068 70.0075 35.8694C68.6284 35.8264 68.3336 35.7949 67.0674 35.8248C66.7637 35.8318 66.4603 35.8748 66.1565 35.8664C65.0196 35.8351 63.8823 35.6223 62.7532 35.4464C61.6763 35.2869 60.6105 35.0178 59.5538 34.6899C59.175 34.5725 58.8006 34.4246 58.4185 34.3311C57.6241 34.1369 56.825 33.9848 56.0275 33.8183L49.0739 34.0991C49.033 34.1649 48.9907 34.23 48.9486 34.2951C49.0137 34.4983 49.0672 34.7062 49.085 34.9274C49.1019 35.1374 48.8571 34.8794 48.6702 34.7492C48.6138 34.8435 48.5538 34.936 48.5044 35.0346C45.8915 34.9855 43.2822 34.7413 40.6711 34.5993C40.6968 34.6817 40.7071 34.7676 40.6823 34.8621C40.3486 36.1398 39.0767 35.9874 38.3896 36.0215C37.515 36.065 36.6093 36.1074 35.7349 36.0784C35.1761 36.0598 34.618 36.0076 34.0596 35.9721C32.0037 35.8129 29.9694 35.3761 27.9345 34.9527L24.4979 35.0915L24.4806 34.4112C24.4153 34.5483 24.2295 34.379 24.1111 34.3295C24.0605 34.3083 23.9784 34.2869 23.9035 34.2647C23.3695 34.1555 22.8354 34.0479 22.3028 33.9288C20.3196 33.6256 18.3327 33.381 16.3497 33.0739C16.3463 33.0736 13.7521 32.6657 13.5083 32.5711C13.2989 32.4898 13.1313 32.2693 12.9428 32.1186C13.2801 31.6433 13.5412 31.0115 13.8909 30.5616C13.8966 30.5626 13.9137 30.5659 13.9192 30.5669C13.9156 30.5578 13.9142 30.5463 13.9105 30.5372C13.9094 30.537 13.9102 30.5375 13.9083 30.5373C13.9576 30.4753 14.0101 30.4197 14.0635 30.3661C13.7136 30.2787 13.3426 30.195 13.2214 29.7874C13.0731 29.2887 13.3345 28.7626 13.5143 28.2423C13.3077 28.2332 13.251 28.2319 12.757 28.2104C12.5425 28.201 12.3594 28.1979 12.172 28.1925C12.0863 28.2236 12.0076 28.243 11.9735 28.1867C11.7183 28.1706 11.4658 28.1287 11.1912 28.0217C11.1528 28.229 11.0884 28.4138 10.9657 28.5484C10.5558 28.9982 9.91678 28.5389 9.39228 28.5233C7.06154 28.454 4.73204 28.2902 2.40445 28.1027C2.20009 28.0402 1.82276 28.2016 1.79112 27.9154C1.75383 27.5787 1.74334 27.2012 1.77677 26.8409C1.45088 26.8045 1.12473 26.7713 0.799581 26.7236C0.578755 26.6911 0.13078 26.888 0.14104 26.5811C0.157176 26.0989 0.336205 25.6744 0.528101 25.2541C0.448475 25.0214 0.38263 24.7839 0.368812 24.5284C0.357741 24.3161 0.611019 24.5139 0.805096 24.6067C0.827917 24.5485 0.85556 24.4922 0.875763 24.4332C2.52855 24.3941 4.18201 24.3964 5.83521 24.4068C5.78843 24.2821 5.74057 24.1598 5.68467 24.0489C5.82022 23.997 5.95414 23.9349 6.08875 23.8765C5.67187 23.8503 5.2551 23.8221 4.8391 23.775C4.48991 23.7356 3.71556 24.0017 3.80184 23.5325C3.9126 22.9303 4.09376 22.4731 4.3211 22.1189C4.26797 22.0124 4.21719 21.8957 4.16736 21.7732C3.31513 21.6621 2.31214 21.4085 4.14029 20.753C3.83455 20.5541 3.62592 20.3914 3.50102 20.2604C3.33008 20.3065 3.20024 20.2827 3.17808 20.0687C3.16737 19.96 3.16963 19.8699 3.16833 19.7741C2.94733 19.3614 2.87112 18.7958 3.06327 17.9948C3.19871 17.4302 3.92078 17.8811 4.35122 17.8705C5.58041 17.8402 6.80819 17.8671 8.03605 17.9151C7.96923 17.8245 7.90446 17.7417 7.83547 17.6428C7.62989 17.3483 8.41898 17.7777 8.71341 17.8048C8.93401 17.8251 9.15481 17.8382 9.37551 17.8561C9.52286 17.7741 9.67178 17.7024 9.82268 17.6471C9.58673 17.2608 9.64001 16.7498 10.2657 16.0724C10.1512 15.7955 10.165 15.4096 10.4448 14.8544C10.7239 14.3009 11.3929 14.5025 11.8798 14.4447C12.5031 14.3706 13.1317 14.4563 13.7576 14.4615C14.0274 14.4636 14.2973 14.4657 14.5671 14.4678C14.5623 14.4603 14.5587 14.4515 14.5535 14.444C14.4453 14.4299 14.3782 14.4203 14.0628 14.3955C14.0883 14.322 14.105 14.2384 14.1261 14.1598C13.6604 14.0738 13.1944 13.9913 12.7283 13.9091C12.1513 13.8227 11.5745 13.7347 10.9975 13.6482C9.88508 13.4813 7.16357 13.0688 5.9114 12.894C5.62938 12.8546 5.25611 13.0418 5.01057 12.9173C4.79221 12.9801 4.62581 12.9621 4.59299 12.7432C4.51572 12.2271 4.52033 11.5987 4.68127 11.1122C4.702 10.9631 4.72492 10.815 4.75712 10.6784C4.7929 10.5266 4.89341 10.5133 5.02855 10.5757C5.30978 10.4432 5.71166 10.7785 6.03663 10.8234C6.15514 10.8398 6.40836 10.8795 6.56089 10.9014C6.56036 10.8979 6.56063 10.8959 6.56008 10.8924C8.49352 11.1173 10.4221 11.4135 12.3477 11.7459C12.309 11.5121 12.298 11.2799 12.3506 11.0511C12.446 10.6357 12.9695 10.879 13.2837 10.8436C13.9654 10.7668 14.6497 10.7362 15.3338 10.7153C15.6205 10.7066 15.9076 10.7058 16.1944 10.7C16.1885 10.6054 16.1918 10.5098 16.2035 10.4129C16.2544 10.0026 16.8013 10.313 17.102 10.2945C17.3555 10.2789 17.6092 10.2729 17.8629 10.2646C17.9193 10.2027 17.9704 10.1425 18.0366 10.0772C18.1596 9.95576 18.296 9.88441 18.4383 9.83427C18.1225 9.78274 17.8067 9.73092 17.4921 9.66691C16.6667 9.49899 14.3383 9.72627 15.7285 7.0746C15.9336 6.68343 16.428 7.01968 16.7782 7.02168C16.8249 7.02199 16.8803 7.02494 16.9279 7.02538C17.0113 6.98242 17.1162 6.96381 17.2295 6.95389C17.3596 6.6871 17.6939 6.89939 17.9483 6.92405C19.0344 6.84885 20.1189 6.74255 21.2012 6.60012C23.4808 6.30178 25.7604 5.98379 28.0493 5.83931C32.3069 5.57227 36.5632 5.25136 40.8243 5.08863C45.4589 4.9768 50.0944 4.97488 54.7293 5.0886C54.7433 4.71068 35.7349 8.71706 55.5282 4.67851C56.2162 4.55579 35.0407 8.71604 35.7349 8.71706C37.4679 8.71943 61.0074 4.70153 62.706 4.81521C62.7508 4.70841 63.0453 4.70235 63.1811 4.68877C63.604 4.64644 64.0295 4.70704 64.4536 4.72026C64.4682 4.72076 65.5123 4.75197 66.5154 4.79464C66.5185 4.78445 66.5228 4.77495 66.527 4.76493C66.529 4.6663 66.5289 4.56984 66.5219 4.47668C66.5729 4.48484 66.6241 4.49166 66.6751 4.49974C66.6806 4.49291 66.6849 4.48377 66.691 4.47716C67.083 4.0646 67.6759 4.58485 68.1686 4.63445C69.352 4.75356 70.5362 4.87239 71.7204 4.98749C71.7224 4.88729 71.7326 4.78725 71.758 4.68777C71.8754 4.22787 38.0374 8.08189 38.3896 8.11847C38.393 8.1188 73.7589 4.88134 74.679 4.99559C74.6973 4.99437 74.7158 4.99382 74.7341 4.99255C77.0453 4.83228 79.3555 4.6443 81.6641 4.42994C83.4669 4.255 85.2689 4.07349 87.0704 3.88092C87.0908 3.87129 87.1115 3.86301 87.1319 3.85325C87.3959 3.72721 87.6775 3.23865 87.9155 3.44053C88.2732 3.21508 88.6387 3.01459 88.703 3.69393C90.0104 3.54854 91.3181 3.4052 92.6247 3.24306C96.488 2.76365 96.762 2.69754 100.569 2.17797C101.898 1.99662 64.073 7.56268 65.4019 7.38407C67.7403 7.11111 108.394 1.14799 110.651 1.02898C110.93 1.01429 111.245 0.865572 111.528 0.849748L111.529 0.849965ZM13.9093 30.5374C13.9027 30.5453 13.897 30.5537 13.8909 30.5616C13.592 30.5049 13.5875 30.4979 13.9093 30.5374ZM96.1723 4.87383C95.2785 4.99504 94.416 5.11039 92.7744 5.31413C92.4772 5.351 92.1798 5.38085 91.8826 5.41676C91.8899 5.63527 91.8841 5.86062 91.8808 6.08474C91.9216 6.20541 91.946 6.33158 91.9573 6.46274C92.0373 6.46002 92.1172 6.45688 92.1971 6.45387C92.2462 6.32896 70.897 9.48023 70.9635 9.33375C70.9607 9.27365 92.371 5.91014 92.3708 5.85127C92.3701 5.71928 92.439 5.68318 92.5453 5.69795C92.7685 5.37766 93.2367 5.57287 93.5723 5.49234C97.2745 4.60414 95.4818 5.04431 96.1723 4.87383ZM128.459 19.0873C128.464 19.2338 128.466 19.3808 128.459 19.5269C129.483 19.6336 130.507 19.7395 131.531 19.8473C131.66 19.836 131.789 19.8256 131.918 19.8138C131.001 19.5957 130.085 19.3687 129.169 19.1415C129.1 19.137 128.586 19.1018 128.459 19.0873ZM129.435 22.6572C129.381 22.8296 129.319 22.9964 129.251 23.1586C129.469 23.1511 129.681 23.1711 129.88 23.2454C130.656 23.2661 131.134 23.274 132.155 23.3063C132.156 23.3003 132.157 23.2944 132.158 23.2883C131.903 23.2116 131.649 23.1264 131.393 23.0722C130.926 22.9731 130.163 22.8182 129.435 22.6572ZM65.4019 33.4399L63.7093 33.5082C64.5041 33.6392 65.3023 33.7665 66.0985 33.7879C66.416 33.7965 66.733 33.7527 67.0505 33.7454C67.1995 33.7421 67.2607 33.7459 67.3867 33.7441C66.7254 33.6385 66.0634 33.5423 65.4019 33.4399ZM97.5772 32.6428C97.5942 32.659 97.6069 32.6781 97.6203 32.6971C97.8177 32.7239 98.0457 32.7546 98.2563 32.7819C98.0299 32.7357 97.8036 32.6886 97.5772 32.6428ZM39.2664 35.7384C39.3867 35.8082 39.5712 35.8411 39.8547 35.8162C39.659 35.7868 39.4623 35.7662 39.2664 35.7384Z" fill="#ECE5D3"/>
</svg>
