<svg width="21" height="21" viewBox="0 0 21 21" fill="none" xmlns="http://www.w3.org/2000/svg">
<path d="M11.3555 17.8435H8.85547" stroke="#22333C" stroke-width="0.9375" stroke-linecap="round" stroke-linejoin="round"/>
<path d="M10.1055 8.78101C10.4506 8.78101 10.7305 8.50118 10.7305 8.15601C10.7305 7.81083 10.4506 7.53101 10.1055 7.53101C9.76029 7.53101 9.48047 7.81083 9.48047 8.15601C9.48047 8.50118 9.76029 8.78101 10.1055 8.78101Z" fill="#22333C"/>
<path d="M7.51248 15.3436C3.0367 7.79045 8.22029 2.88498 9.72186 1.72482C9.83154 1.63955 9.96652 1.59326 10.1054 1.59326C10.2444 1.59326 10.3794 1.63955 10.489 1.72482C11.9906 2.88498 17.1742 7.79045 12.6984 15.3436H7.51248Z" stroke="#22333C" stroke-width="0.9375" stroke-linecap="round" stroke-linejoin="round"/>
<path d="M14.468 9.00598L16.836 11.8466C16.8971 11.9201 16.9406 12.0066 16.9631 12.0995C16.9856 12.1924 16.9865 12.2892 16.9657 12.3825L16 16.7286C15.977 16.8323 15.928 16.9283 15.8576 17.0078C15.7871 17.0872 15.6976 17.1474 15.5975 17.1826C15.4973 17.2179 15.3899 17.2271 15.2852 17.2093C15.1805 17.1915 15.0821 17.1473 14.9993 17.081L12.6985 15.3435" stroke="#22333C" stroke-width="0.9375" stroke-linecap="round" stroke-linejoin="round"/>
<path d="M5.74311 9.00598L3.37514 11.8466C3.31398 11.9201 3.27048 12.0066 3.248 12.0995C3.22552 12.1924 3.22465 12.2892 3.24546 12.3825L4.21108 16.7286C4.2341 16.8323 4.28314 16.9283 4.35358 17.0078C4.42401 17.0872 4.51352 17.1474 4.61365 17.1826C4.71379 17.2179 4.82126 17.2271 4.92592 17.2093C5.03059 17.1915 5.12899 17.1473 5.21186 17.081L7.51264 15.3435" stroke="#22333C" stroke-width="0.9375" stroke-linecap="round" stroke-linejoin="round"/>
</svg>
