<svg width="21" height="21" viewBox="0 0 21 21" fill="none" xmlns="http://www.w3.org/2000/svg">
<path d="M7.17495 13.6701L2.87104 12.0842C2.75237 12.0404 2.64997 11.9612 2.57765 11.8575C2.50533 11.7537 2.46655 11.6302 2.46655 11.5037C2.46655 11.3772 2.50533 11.2537 2.57765 11.15C2.64997 11.0462 2.75237 10.967 2.87104 10.9232L7.17495 9.3373L8.76089 5.0334C8.80469 4.91472 8.88382 4.81232 8.9876 4.74C9.09139 4.66768 9.21485 4.62891 9.34135 4.62891C9.46786 4.62891 9.59132 4.66768 9.6951 4.74C9.79889 4.81232 9.87802 4.91472 9.92182 5.0334L11.5078 9.3373L15.8117 10.9232C15.9303 10.967 16.0327 11.0462 16.1051 11.15C16.1774 11.2537 16.2162 11.3772 16.2162 11.5037C16.2162 11.6302 16.1774 11.7537 16.1051 11.8575C16.0327 11.9612 15.9303 12.0404 15.8117 12.0842L11.5078 13.6701L9.92182 17.974C9.87802 18.0927 9.79889 18.1951 9.6951 18.2674C9.59132 18.3397 9.46786 18.3785 9.34135 18.3785C9.21485 18.3785 9.09139 18.3397 8.9876 18.2674C8.88382 18.1951 8.80469 18.0927 8.76089 17.974L7.17495 13.6701Z" stroke="#22333C" stroke-width="0.9375" stroke-linecap="round" stroke-linejoin="round"/>
<path d="M14.3413 1.50366V5.25366" stroke="#343330" stroke-width="0.9375" stroke-linecap="round" stroke-linejoin="round"/>
<path d="M18.0913 5.87866V8.37866" stroke="#343330" stroke-width="0.9375" stroke-linecap="round" stroke-linejoin="round"/>
<path d="M12.4663 3.37866H16.2163" stroke="#343330" stroke-width="0.9375" stroke-linecap="round" stroke-linejoin="round"/>
<path d="M16.8413 7.12866H19.3413" stroke="#343330" stroke-width="0.9375" stroke-linecap="round" stroke-linejoin="round"/>
</svg>
