<svg width="20" height="24" viewBox="0 0 20 24" fill="none" xmlns="http://www.w3.org/2000/svg">
<path fill-rule="evenodd" clip-rule="evenodd" d="M4.32641 1.04677C3.67506 1.69812 4.44215 4.90644 5.61762 6.44777C6.43932 7.52486 6.44491 7.63099 5.67999 7.63099C4.10112 7.63161 0.614767 9.48138 0.626249 10.3127C0.639903 11.3091 4.09151 13.0276 6.07967 13.0276H7.15366L6.30992 13.8158C5.26727 14.7899 4.42385 16.6434 4.21284 18.4246L4.05333 19.7735H4.89025C6.98175 19.7735 9.86579 18.1568 10.506 16.6251C10.9941 15.4565 11.0323 15.4869 10.9153 16.955C10.78 18.6555 11.2836 20.4842 12.3045 21.9994C13.3621 23.5687 13.5753 23.5817 14.6337 22.1418C17.0256 18.8898 16.6722 15.8425 13.5203 12.5423C12.8541 11.8447 12.164 11.0007 11.9868 10.6668C11.8096 10.3326 11.445 10.0595 11.1765 10.0595C10.6785 10.0595 9.79783 9.27378 9.79132 8.82414C9.78946 8.68729 9.03043 8.21127 8.10477 7.76598C6.00985 6.75808 4.91259 5.17797 4.7233 2.89685C4.58366 1.21372 4.61407 1.19727 6.72202 1.82348C9.9533 2.78297 12.923 8.06791 10.6043 8.73291C10.1482 8.86386 10.087 8.93492 10.4154 8.95323C11.3947 9.00754 12.3787 9.76501 12.846 10.8247C14.3551 14.2453 19.5323 12.9349 19.1755 9.22258C18.961 6.98895 16.9847 5.57113 14.8373 6.11014C13.9262 6.33884 12.4932 7.87707 12.4932 8.62678C12.4932 8.96937 12.3849 9.24989 12.2524 9.24989C11.9036 9.24989 11.6842 8.54145 11.6811 7.40663C11.678 6.27492 10.6921 4.0236 9.7848 3.07684C8.69436 1.93861 4.86046 0.512721 4.32641 1.04677ZM17.8694 7.38181C19.3257 8.83842 18.9191 11.1326 17.0312 12.1088C14.7358 13.2958 11.9601 10.506 13.1492 8.20662C14.1186 6.33202 16.4177 5.93016 17.8694 7.38181ZM9.79007 9.55896C12.3439 11.4472 6.34623 13.4844 3.09044 11.8345C0.734546 10.6407 0.693588 10.0443 2.89029 8.92344C5.25487 7.71726 7.58996 7.9323 9.79007 9.55896ZM11.5374 11.1201C11.7236 11.4215 11.3302 11.6952 10.0647 12.1445C8.62113 12.6571 8.53921 12.5603 9.68736 11.697C10.8004 10.8601 11.2836 10.7096 11.5374 11.1201ZM12.9047 12.5088C13.0468 12.9569 11.8968 14.9165 11.4915 14.9165C11.3494 14.9165 11.6793 12.1951 11.8583 11.8928C12.0501 11.5682 12.734 11.971 12.9047 12.5088ZM14.4866 14.3328C15.9923 16.5056 16.1003 18.4277 14.8544 20.8677C13.7608 23.0092 13.5079 23.084 12.5363 21.5522C10.8445 18.8845 10.8129 16.6397 12.4346 14.3462C13.3528 13.0478 13.5948 13.0463 14.4866 14.3328Z" fill="#22333C"/>
</svg>
