<svg width="23" height="28" viewBox="0 0 23 28" fill="none" xmlns="http://www.w3.org/2000/svg">
<path fill-rule="evenodd" clip-rule="evenodd" d="M5.04626 0.688322C4.25936 1.47521 5.18609 5.35119 6.60617 7.21327C7.59887 8.51451 7.60562 8.64272 6.68152 8.64272C4.77409 8.64347 0.562213 10.8782 0.576084 11.8825C0.592579 13.0863 4.76247 15.1624 7.16438 15.1624H8.46187L7.44254 16.1146C6.18292 17.2914 5.16397 19.5306 4.90905 21.6825L4.71635 23.3121H5.72743C8.25418 23.3121 11.7384 21.359 12.5118 19.5085C13.1015 18.0967 13.1476 18.1334 13.0063 19.907C12.8428 21.9614 13.4513 24.1706 14.6846 26.0012C15.9623 27.897 16.2198 27.9128 17.4986 26.1733C20.3882 22.2445 19.9612 18.563 16.1535 14.5761C15.3486 13.7333 14.5148 12.7136 14.3008 12.3103C14.0867 11.9065 13.6462 11.5766 13.3219 11.5766C12.7202 11.5766 11.6563 10.6274 11.6484 10.0842C11.6462 9.91885 10.7292 9.34377 9.6109 8.8058C7.08003 7.58816 5.75442 5.67922 5.52574 2.92341C5.35704 0.890012 5.39378 0.870143 7.9404 1.62667C11.8441 2.78583 15.4318 9.17057 12.6306 9.97395C12.0795 10.1322 12.0057 10.218 12.4023 10.2401C13.5855 10.3057 14.7742 11.2208 15.3388 12.5011C17.1619 16.6335 23.4166 15.0503 22.9854 10.5655C22.7264 7.86708 20.3387 6.15421 17.7445 6.80539C16.6438 7.08168 14.9126 8.94001 14.9126 9.84574C14.9126 10.2596 14.7817 10.5985 14.6217 10.5985C14.2003 10.5985 13.9352 9.74265 13.9315 8.37168C13.9277 7.00446 12.7367 4.28464 11.6405 3.14085C10.3232 1.76575 5.69144 0.0431375 5.04626 0.688322ZM21.4075 8.34168C23.1669 10.1014 22.6758 12.873 20.395 14.0524C17.6219 15.4863 14.2685 12.1161 15.7051 9.33814C16.8762 7.07344 19.6538 6.58795 21.4075 8.34168ZM11.6469 10.9719C14.7323 13.2531 7.48641 15.7143 3.55307 13.721C0.706918 12.2788 0.657437 11.5582 3.31127 10.2041C6.16793 8.74694 8.98896 9.00674 11.6469 10.9719ZM13.7579 12.858C13.9829 13.222 13.5075 13.5526 11.9787 14.0955C10.2347 14.7148 10.1357 14.5978 11.5228 13.5549C12.8676 12.5438 13.4513 12.362 13.7579 12.858ZM15.4097 14.5356C15.5814 15.0769 14.192 17.4444 13.7024 17.4444C13.5307 17.4444 13.9292 14.1566 14.1456 13.7915C14.3772 13.3993 15.2035 13.8859 15.4097 14.5356ZM17.3209 16.7392C19.1398 19.3642 19.2703 21.6862 17.7651 24.634C16.444 27.2211 16.1385 27.3115 14.9647 25.461C12.9208 22.2381 12.8826 19.5261 14.8417 16.7553C15.951 15.1868 16.2434 15.1849 17.3209 16.7392Z" fill="#474036"/>
</svg>
