<svg width="21" height="25" viewBox="0 0 21 25" fill="none" xmlns="http://www.w3.org/2000/svg">
<path fill-rule="evenodd" clip-rule="evenodd" d="M4.48007 0.413669C3.77808 1.11566 4.60481 4.57343 5.87166 6.23459C6.75726 7.39542 6.76328 7.5098 5.93889 7.5098C4.23726 7.51047 0.479844 9.50406 0.492218 10.4C0.506933 11.4739 4.2269 13.326 6.36965 13.326H7.52714L6.6178 14.1755C5.49408 15.2253 4.58508 17.2229 4.35766 19.1426L4.18576 20.5964H5.08774C7.34186 20.5964 10.4501 18.854 11.1401 17.2032C11.6662 15.9437 11.7073 15.9765 11.5812 17.5587C11.4354 19.3914 11.9782 21.3623 13.0785 22.9953C14.2183 24.6866 14.448 24.7007 15.5888 23.1489C18.1666 19.6439 17.7857 16.3597 14.3888 12.803C13.6708 12.0512 12.927 11.1415 12.736 10.7816C12.5451 10.4214 12.1521 10.1271 11.8628 10.1271C11.326 10.1271 10.3769 9.28032 10.3699 8.79572C10.3679 8.64823 9.54982 8.13521 8.55219 7.65528C6.29439 6.56903 5.11182 4.86606 4.90782 2.4076C4.75732 0.593596 4.79009 0.575871 7.06193 1.25077C10.5444 2.28486 13.745 7.98069 11.2461 8.6974C10.7545 8.83853 10.6886 8.91512 11.0424 8.93485C12.0979 8.99338 13.1584 9.80974 13.6621 10.9519C15.2885 14.6384 20.8682 13.226 20.4836 9.22514C20.2525 6.81785 18.1225 5.28979 15.8082 5.87071C14.8263 6.1172 13.2818 7.77501 13.2818 8.58302C13.2818 8.95224 13.1651 9.25457 13.0223 9.25457C12.6464 9.25457 12.4099 8.49105 12.4066 7.268C12.4033 6.0483 11.3407 3.62195 10.3628 2.60157C9.18763 1.37485 5.05563 -0.161902 4.48007 0.413669ZM19.076 7.24125C20.6455 8.8111 20.2074 11.2836 18.1727 12.3358C15.6988 13.615 12.7073 10.6084 13.9888 8.13019C15.0336 6.10984 17.5115 5.67674 19.076 7.24125ZM10.3685 9.58768C13.121 11.6227 6.65693 13.8183 3.14799 12.0401C0.608935 10.7535 0.564793 10.1107 2.93229 8.90274C5.48071 7.60278 7.99736 7.83454 10.3685 9.58768ZM12.2518 11.2702C12.4524 11.595 12.0284 11.89 10.6645 12.3742C9.1087 12.9267 9.02041 12.8224 10.2578 11.892C11.4575 10.99 11.9782 10.8278 12.2518 11.2702ZM13.7253 12.7669C13.8785 13.2498 12.639 15.3618 12.2023 15.3618C12.0491 15.3618 12.4046 12.4287 12.5976 12.103C12.8042 11.7532 13.5414 12.1873 13.7253 12.7669ZM15.4303 14.7327C17.053 17.0744 17.1693 19.146 15.8266 21.7756C14.648 24.0836 14.3754 24.1642 13.3283 22.5134C11.505 19.6382 11.4708 17.2189 13.2186 14.7471C14.2082 13.3478 14.4691 13.3461 15.4303 14.7327Z" fill="#ECE5D3"/>
</svg>
