<svg width="34" height="41" viewBox="0 0 34 41" fill="none" xmlns="http://www.w3.org/2000/svg">
<path fill-rule="evenodd" clip-rule="evenodd" d="M6.74803 0.707677C5.57805 1.87766 6.95593 7.6406 9.06736 10.4092C10.5433 12.3439 10.5534 12.5346 9.1794 12.5346C6.34335 12.5357 0.0809896 15.8583 0.101613 17.3516C0.126139 19.1414 6.32608 22.2283 9.89733 22.2283H11.8265L10.3109 23.6441C8.43806 25.3938 6.92305 28.7231 6.54402 31.9226L6.25751 34.3456H7.76082C11.5177 34.3456 16.6981 31.4415 17.8481 28.6902C18.7248 26.5911 18.7934 26.6457 18.5833 29.2827C18.3402 32.3373 19.2449 35.622 21.0787 38.3438C22.9783 41.1626 23.3613 41.186 25.2626 38.5997C29.559 32.7581 28.9241 27.2845 23.2626 21.3565C22.0659 20.1035 20.8262 18.5874 20.508 17.9876C20.1897 17.3873 19.5347 16.8968 19.0526 16.8968C18.158 16.8968 16.5761 15.4854 16.5644 14.6778C16.561 14.432 15.1976 13.5769 13.5349 12.777C9.77191 10.9666 7.80095 8.12833 7.46094 4.03089C7.21011 1.00756 7.26473 0.978014 11.0511 2.10285C16.8553 3.82632 22.1896 13.3194 18.0247 14.5139C17.2054 14.7491 17.0956 14.8768 17.6853 14.9096C19.4444 15.0072 21.212 16.3678 22.0514 18.2713C24.762 24.4155 34.0616 22.0616 33.4206 15.3935C33.0355 11.3813 29.4854 8.83455 25.6282 9.80275C23.9917 10.2136 21.4176 12.9766 21.4176 14.3233C21.4176 14.9386 21.2231 15.4425 20.9851 15.4425C20.3586 15.4425 19.9645 14.17 19.9589 12.1316C19.9533 10.0987 18.1825 6.05481 16.5527 4.35418C14.594 2.30964 7.70731 -0.251607 6.74803 0.707677ZM31.0746 12.087C33.6904 14.7034 32.9602 18.8243 29.569 20.5778C25.4459 22.7099 20.46 17.6989 22.596 13.5685C24.3373 10.2013 28.467 9.47946 31.0746 12.087ZM16.5621 15.9977C21.1495 19.3895 10.3761 23.0488 4.52791 20.0851C0.296142 17.9408 0.222572 16.8695 4.16839 14.8561C8.41577 12.6895 12.6102 13.0758 16.5621 15.9977ZM19.7008 18.802C20.0353 19.3432 19.3285 19.8348 17.0554 20.6419C14.4624 21.5628 14.3153 21.3889 16.3776 19.8382C18.377 18.3349 19.2449 18.0645 19.7008 18.802ZM22.1567 21.2963C22.412 22.1012 20.3463 25.6212 19.6183 25.6212C19.3631 25.6212 19.9556 20.7328 20.2772 20.1899C20.6217 19.6068 21.8502 20.3304 22.1567 21.2963ZM24.9984 24.5727C27.7029 28.4756 27.8968 31.9282 25.6589 36.311C23.6946 40.1576 23.2403 40.2919 21.4951 37.5406C18.4562 32.7486 18.3993 28.7164 21.3123 24.5967C22.9616 22.2645 23.3964 22.2617 24.9984 24.5727Z" fill="#22333C"/>
</svg>
