<svg width="35" height="41" viewBox="0 0 35 41" fill="none" xmlns="http://www.w3.org/2000/svg">
<path fill-rule="evenodd" clip-rule="evenodd" d="M7.51365 0.981114C6.34367 2.15109 7.72156 7.91404 9.83298 10.6826C11.309 12.6174 11.319 12.808 9.94502 12.808C7.10898 12.8091 0.846615 16.1318 0.867238 17.625C0.891764 19.4149 7.09171 22.5017 10.663 22.5017H12.5921L11.0765 23.9175C9.20368 25.6672 7.68868 28.9965 7.30964 32.196L7.02314 34.619H8.52644C12.2833 34.619 17.4638 31.715 18.6137 28.9637C19.4905 26.8645 19.559 26.9191 19.3489 29.5562C19.1059 32.6107 20.0105 35.8955 21.8444 38.6173C23.744 41.436 24.1269 41.4594 26.0282 38.8731C30.3246 33.0316 29.6897 27.5579 24.0282 21.63C22.8315 20.3769 21.5919 18.8608 21.2736 18.261C20.9553 17.6607 20.3004 17.1702 19.8182 17.1702C18.9236 17.1702 17.3417 15.7589 17.33 14.9512C17.3266 14.7054 15.9632 13.8503 14.3005 13.0505C10.5375 11.24 8.56658 8.40177 8.22657 4.30433C7.97574 1.28099 8.03036 1.25145 11.8168 2.37628C17.621 4.09976 22.9553 13.5928 18.7904 14.7873C17.971 15.0226 17.8612 15.1502 18.4509 15.1831C20.2101 15.2806 21.9776 16.6412 22.817 18.5448C25.5276 24.689 34.8273 22.3351 34.1863 15.6669C33.8011 11.6547 30.251 9.10799 26.3938 10.0762C24.7573 10.487 22.1833 13.25 22.1833 14.5967C22.1833 15.2121 21.9887 15.716 21.7507 15.716C21.1242 15.716 20.7301 14.4434 20.7245 12.405C20.719 10.3722 18.9481 6.32824 17.3183 4.62762C15.3596 2.58308 8.47293 0.0218306 7.51365 0.981114ZM31.8402 12.3604C34.456 14.9768 33.7259 19.0977 30.3346 20.8513C26.2116 22.9833 21.2256 17.9723 23.3616 13.842C25.1029 10.4747 29.2327 9.7529 31.8402 12.3604ZM17.3278 16.2711C21.9151 19.6629 11.1418 23.3222 5.29353 20.3585C1.06177 18.2142 0.988197 17.1429 4.93402 15.1296C9.18139 12.963 13.3758 13.3492 17.3278 16.2711ZM20.4665 19.0754C20.8009 19.6166 20.0941 20.1083 17.8211 20.9154C15.228 21.8362 15.0809 21.6623 17.1433 20.1116C19.1426 18.6083 20.0105 18.338 20.4665 19.0754ZM22.9224 21.5698C23.1777 22.3746 21.1119 25.8946 20.384 25.8946C20.1287 25.8946 20.7212 21.0062 21.0428 20.4633C21.3873 19.8803 22.6158 20.6038 22.9224 21.5698ZM25.764 24.8462C28.4685 28.7491 28.6625 32.2016 26.4245 36.5844C24.4602 40.431 24.0059 40.5654 22.2607 37.814C19.2218 33.0221 19.1649 28.9899 22.0779 24.8701C23.7272 22.538 24.162 22.5352 25.764 24.8462Z" fill="#22333C"/>
</svg>
