<svg width="24" height="28" viewBox="0 0 24 28" fill="none" xmlns="http://www.w3.org/2000/svg">
<path fill-rule="evenodd" clip-rule="evenodd" d="M5.1087 0.688322C4.32181 1.47521 5.24853 5.35119 6.66861 7.21327C7.66132 8.51451 7.66807 8.64272 6.74397 8.64272C4.83653 8.64347 0.62466 10.8782 0.638531 11.8825C0.655026 13.0863 4.82491 15.1624 7.22683 15.1624H8.52432L7.50499 16.1146C6.24536 17.2914 5.22642 19.5306 4.97149 21.6825L4.7788 23.3121H5.78988C8.31663 23.3121 11.8008 21.359 12.5742 19.5085C13.1639 18.0967 13.21 18.1334 13.0687 19.907C12.9053 21.9614 13.5137 24.1706 14.7471 26.0012C16.0247 27.897 16.2823 27.9128 17.561 26.1733C20.4506 22.2445 20.0237 18.563 16.2159 14.5761C15.411 13.7333 14.5773 12.7136 14.3632 12.3103C14.1491 11.9065 13.7086 11.5766 13.3844 11.5766C12.7827 11.5766 11.7187 10.6274 11.7109 10.0842C11.7086 9.91885 10.7916 9.34377 9.67335 8.8058C7.14247 7.58816 5.81687 5.67922 5.58819 2.92341C5.41949 0.890012 5.45622 0.870143 8.00284 1.62667C11.9066 2.78583 15.4942 9.17057 12.6931 9.97395C12.142 10.1322 12.0681 10.218 12.4648 10.2401C13.6479 10.3057 14.8367 11.2208 15.4013 12.5011C17.2244 16.6335 23.479 15.0503 23.0479 10.5655C22.7888 7.86708 20.4012 6.15421 17.8069 6.80539C16.7063 7.08168 14.975 8.94001 14.975 9.84574C14.975 10.2596 14.8442 10.5985 14.6841 10.5985C14.2627 10.5985 13.9977 9.74265 13.9939 8.37168C13.9902 7.00446 12.7992 4.28464 11.703 3.14085C10.3856 1.76575 5.75389 0.0431375 5.1087 0.688322ZM21.47 8.34168C23.2293 10.1014 22.7382 12.873 20.4574 14.0524C17.6843 15.4863 14.331 12.1161 15.7675 9.33814C16.9387 7.07344 19.7162 6.58795 21.47 8.34168ZM11.7094 10.9719C14.7947 13.2531 7.54885 15.7143 3.61552 13.721C0.769365 12.2788 0.719883 11.5582 3.37372 10.2041C6.23037 8.74694 9.0514 9.00674 11.7094 10.9719ZM13.8204 12.858C14.0453 13.222 13.5699 13.5526 12.0411 14.0955C10.2972 14.7148 10.1982 14.5978 11.5853 13.5549C12.93 12.5438 13.5137 12.362 13.8204 12.858ZM15.4721 14.5356C15.6438 15.0769 14.2545 17.4444 13.7649 17.4444C13.5932 17.4444 13.9917 14.1566 14.208 13.7915C14.4397 13.3993 15.2659 13.8859 15.4721 14.5356ZM17.3833 16.7392C19.2023 19.3642 19.3327 21.6862 17.8276 24.634C16.5064 27.2211 16.2009 27.3115 15.0271 25.461C12.9832 22.2381 12.945 19.5261 14.9042 16.7553C16.0135 15.1868 16.3059 15.1849 17.3833 16.7392Z" fill="#474036"/>
</svg>
