<svg width="21" height="25" viewBox="0 0 21 25" fill="none" xmlns="http://www.w3.org/2000/svg">
<path fill-rule="evenodd" clip-rule="evenodd" d="M4.65242 0.679294C3.95044 1.38128 4.77717 4.83905 6.04402 6.50021C6.92961 7.66105 6.93564 7.77543 6.11124 7.77543C4.40962 7.7761 0.652207 9.76969 0.664581 10.6657C0.679297 11.7395 4.39926 13.5917 6.542 13.5917H7.6995L6.79015 14.4411C5.66644 15.4909 4.75744 17.4886 4.53002 19.4082L4.35812 20.862H5.2601C7.51421 20.862 10.6225 19.1196 11.3124 17.4688C11.8385 16.2093 11.8796 16.2421 11.7536 17.8243C11.6077 19.6571 12.1505 21.6279 13.2508 23.261C14.3906 24.9522 14.6204 24.9663 15.7611 23.4145C18.339 19.9096 17.9581 16.6254 14.5612 13.0686C13.8431 12.3168 13.0993 11.4071 12.9084 11.0472C12.7174 10.6871 12.3244 10.3928 12.0352 10.3928C11.4984 10.3928 10.5492 9.54595 10.5422 9.06135C10.5402 8.91386 9.72217 8.40083 8.72454 7.92091C6.46675 6.83465 5.28418 5.13168 5.08017 2.67322C4.92968 0.859221 4.96245 0.841496 7.23429 1.51639C10.7168 2.55048 13.9174 8.24632 11.4184 8.96302C10.9268 9.10416 10.8609 9.18074 11.2148 9.20047C12.2703 9.259 13.3308 10.0754 13.8344 11.2175C15.4608 14.904 21.0406 13.4917 20.656 9.49077C20.4249 7.08347 18.2948 5.55542 15.9805 6.13634C14.9986 6.38282 13.4542 8.04064 13.4542 8.84864C13.4542 9.21786 13.3375 9.5202 13.1947 9.5202C12.8187 9.5202 12.5823 8.75667 12.579 7.53363C12.5756 6.31393 11.5131 3.88757 10.5352 2.8672C9.35998 1.64047 5.22799 0.103723 4.65242 0.679294ZM19.2483 7.50687C20.8178 9.07673 20.3797 11.5492 18.345 12.6014C15.8712 13.8806 12.8796 10.874 14.1612 8.39581C15.206 6.37546 17.6838 5.94236 19.2483 7.50687ZM10.5409 9.8533C13.2933 11.8884 6.82928 14.084 3.32035 12.3057C0.781298 11.0192 0.737156 10.3764 3.10465 9.16837C5.65307 7.8684 8.16971 8.10017 10.5409 9.8533ZM12.4241 11.5359C12.6248 11.8606 12.2007 12.1556 10.8369 12.6398C9.28105 13.1923 9.19276 13.088 10.4302 12.1576C11.6298 11.2556 12.1505 11.0934 12.4241 11.5359ZM13.8976 13.0325C14.0508 13.5154 12.8114 15.6274 12.3746 15.6274C12.2214 15.6274 12.5769 12.6944 12.7699 12.3686C12.9766 12.0188 13.7137 12.4529 13.8976 13.0325ZM15.6026 14.9983C17.2253 17.3401 17.3417 19.4116 15.9989 22.0413C14.8204 24.3492 14.5478 24.4298 13.5007 22.779C11.6773 19.9039 11.6432 17.4845 13.391 15.0127C14.3806 13.6134 14.6414 13.6117 15.6026 14.9983Z" fill="#22333C"/>
</svg>
