<svg width="33" height="33" viewBox="0 0 33 33" fill="none" xmlns="http://www.w3.org/2000/svg">
<path d="M27.0602 10.0018C26.9416 10.0584 26.8354 10.1378 26.7476 10.2355C26.6597 10.3332 26.592 10.4472 26.5482 10.5711C26.5045 10.6949 26.4855 10.8262 26.4925 10.9574C26.4995 11.0885 26.5323 11.2171 26.5889 11.3356C27.7627 13.7844 27.9902 16.5806 27.2276 19.187C26.4651 21.7934 24.7663 24.026 22.4577 25.456C20.149 26.886 17.3934 27.4124 14.7202 26.9342C12.047 26.4559 9.64485 25.0067 7.97522 22.865C6.30559 20.7233 5.48627 18.0401 5.67469 15.331C5.86311 12.622 7.04596 10.078 8.996 8.18807C10.946 6.2981 13.5257 5.19538 16.2393 5.09179C18.953 4.98819 21.6092 5.89102 23.6977 7.62682L20.8514 10.4731C19.434 9.417 17.6696 8.93625 15.9123 9.12736C14.1551 9.31846 12.5353 10.1673 11.378 11.5033C10.2208 12.8394 9.61179 14.5638 9.67341 16.3303C9.73502 18.0968 10.4626 19.7746 11.7102 21.0268C12.7132 22.0295 13.9972 22.7039 15.3921 22.9606C16.787 23.2172 18.2269 23.0442 19.5213 22.4642C20.8156 21.8843 21.9032 20.9249 22.6401 19.713C23.3769 18.5012 23.7283 17.0941 23.6477 15.6781C23.6403 15.5467 23.6071 15.4182 23.55 15.2997C23.4929 15.1812 23.4131 15.0751 23.315 14.9874C23.2169 14.8998 23.1025 14.8323 22.9784 14.7889C22.8542 14.7455 22.7227 14.7269 22.5914 14.7343C22.4601 14.7417 22.3315 14.7749 22.213 14.832C22.0945 14.889 21.9884 14.9689 21.9008 15.067C21.8132 15.1651 21.7457 15.2795 21.7023 15.4036C21.6588 15.5278 21.6403 15.6592 21.6477 15.7906C21.7012 16.717 21.4959 17.64 21.0546 18.4564C20.6134 19.2727 19.9537 19.9502 19.1494 20.4129C18.3451 20.8757 17.4278 21.1055 16.5003 21.0766C15.5728 21.0477 14.6716 20.7612 13.8977 20.2493L16.8914 17.2556L21.6102 12.5431L29.3677 4.79307C29.4606 4.70016 29.5343 4.58986 29.5846 4.46846C29.6348 4.34707 29.6607 4.21696 29.6607 4.08557C29.6607 3.95417 29.6348 3.82406 29.5846 3.70267C29.5343 3.58128 29.4606 3.47098 29.3677 3.37807C29.2748 3.28516 29.1645 3.21146 29.0431 3.16117C28.9217 3.11089 28.7916 3.08501 28.6602 3.08501C28.5288 3.08501 28.3987 3.11089 28.2773 3.16117C28.1559 3.21146 28.0456 3.28516 27.9527 3.37807L25.1189 6.20307C22.5676 4.00532 19.2631 2.88329 15.9011 3.0732C12.5391 3.26311 9.382 4.75016 7.09446 7.22124C4.80693 9.69232 3.56748 12.9546 3.63709 16.3212C3.7067 19.6879 5.07994 22.8962 7.46767 25.2706C9.6356 27.4424 12.5019 28.7773 15.5594 29.039C18.6169 29.3008 21.6684 28.4725 24.174 26.7008C26.6795 24.9291 28.4775 22.3281 29.2499 19.3582C30.0222 16.3883 29.719 13.2409 28.3939 10.4731C28.3373 10.3545 28.2579 10.2483 28.1602 10.1605C28.0626 10.0726 27.9485 10.0049 27.8247 9.96112C27.7008 9.91736 27.5695 9.89843 27.4384 9.90541C27.3072 9.91239 27.1787 9.94515 27.0602 10.0018Z" fill="#ECE5D3"/>
</svg>
