<svg width="160" height="38" viewBox="0 0 160 38" fill="none" xmlns="http://www.w3.org/2000/svg">
<path fill-rule="evenodd" clip-rule="evenodd" d="M113.793 35.5149C139.243 36.546 139.398 36.4193 140.177 35.4694C140.596 34.9571 144.304 34.3661 148.416 34.156C153.342 33.9045 156.313 33.3647 157.124 32.5743C157.801 31.9145 158.678 31.3817 159.073 31.3904C159.467 31.399 159.801 30.6527 159.814 29.7318C159.832 28.3972 159.337 28.0465 157.373 28.0033C156.017 27.9734 154.914 27.5723 154.92 27.1119C154.927 26.6514 155.587 26.2891 156.387 26.3067C158.492 26.353 159.122 24.7109 157.063 24.5476C156.111 24.4721 155.079 24.4494 154.769 24.4971C154.459 24.5448 154.21 24.2071 154.217 23.7467C154.223 23.2863 155.072 22.9281 156.103 22.9508C157.134 22.9735 157.983 22.6153 157.989 22.1549C157.996 21.6944 157.645 21.3099 157.21 21.3003C156.792 21.2911 154.999 20.5081 153.156 19.5355C154.093 19.3947 154.659 19.1945 154.662 18.9625C154.668 18.502 153.408 18.0923 151.861 18.052C151.014 18.0299 149.999 17.9255 149.086 17.7791C148.045 17.4333 146.902 17.1186 145.622 16.8301L145.316 16.7275L147.573 16.2161C148.865 15.9235 147.788 15.6562 144.512 15.4462C143.731 15.35 143.417 14.8915 143.667 14.1972C143.711 14.0756 143.734 13.9561 143.737 13.8399C147.951 14.0447 152.047 14.3602 153.97 14.716C158.001 15.462 159.154 15.3677 158.286 14.3632C157.543 13.5047 152.239 12.0798 149.938 12.1207C148.732 12.1421 147.504 11.7081 147.21 11.1563C146.916 10.6045 145.556 10.164 144.187 10.1773C143.85 10.1806 143.507 10.1642 143.175 10.1318C143.671 9.59371 143.283 9.35864 141.807 8.56971C141.523 8.41828 141.253 8.24102 141.008 8.05052C142.334 8.06463 144.122 8.1259 146.184 8.23515C157.953 8.85895 154.093 7.54262 141.141 6.5155C140.688 6.47959 140.235 6.44277 139.785 6.4053C139.783 6.3821 139.782 6.35934 139.782 6.33705C139.791 5.70878 138.72 4.92961 137.403 4.60556C135.356 4.1019 123.332 8.75441 124.591 8.23515C125.402 7.90106 120.329 6.75555 107.749 6.5155C95.1682 6.27543 79.1731 7.19231 81.0247 7.55528C83.9008 8.1191 98.6133 3.27908 96.6882 3.45825C95.9614 3.5259 91.307 3.53034 84.7111 3.4823C78.1179 3.24009 73.4665 3.03086 72.742 2.93127C70.823 2.6675 70.9886 2.54802 73.8786 2.1111C75.7391 1.82982 66.969 1.34305 54.3896 1.02942C41.8101 0.715783 32.173 0.761522 32.9737 1.13106C34.2183 1.70543 34.0798 1.87313 32.02 2.28641C30.6948 2.55232 29.6033 3.28391 29.5946 3.91217C29.5943 3.93446 29.5929 3.95717 29.5902 3.98027C29.1389 3.99789 28.6852 4.01476 28.2316 4.03072C15.2591 4.48733 11.3652 5.63302 23.1446 5.52745C25.2074 5.50896 26.9964 5.52641 28.3217 5.57065C28.0716 5.75025 27.7969 5.91553 27.5095 6.0544C26.0123 6.77789 25.6183 6.99575 26.0988 7.55528C25.7663 7.57309 25.423 7.57437 25.0859 7.55624C23.7189 7.48275 22.3472 7.86319 22.0379 8.40169C21.7285 8.94019 20.4895 9.31986 19.2846 9.2454C17.7079 9.14796 45.6719 14.2224 43.6911 14.8311C43.4322 14.8921 12.261 10.4133 12.1196 10.4844C11.5127 10.7014 11.0643 10.9209 10.8802 11.1193C10.8355 11.1675 10.7958 11.2137 10.7613 11.2579C10.1751 11.4485 9.47688 11.5617 8.83286 11.5475C7.01437 11.5075 6.70789 11.7835 7.01464 13.1823C7.29604 14.4656 7.01445 14.8572 5.82902 14.8311C4.97409 14.8123 4.49304 15.0497 4.76025 15.3586C4.8371 15.4475 4.87693 15.5746 4.88306 15.7256C1.9242 15.8861 -0.0074828 16.1462 0.170528 16.4919C0.369655 16.8786 2.02738 17.4793 3.93107 17.867C3.9118 18.02 3.98748 18.0909 4.16503 18.0453C4.81479 17.878 6.73439 18.8302 7.93296 19.7246C7.97486 20.063 8.36227 20.5014 8.93853 20.9087C8.89343 21.2475 8.31842 21.3188 7.62593 21.0619C6.64722 20.6989 6.69219 20.8453 7.80539 21.6459C8.05076 21.8224 8.30644 22.0353 8.55282 22.2636C7.76466 22.2159 6.79003 22.144 5.61181 22.0495C1.69927 21.7357 -0.728601 21.707 0.216511 21.9859C1.49052 22.3618 1.72632 22.7555 1.12827 23.5086C0.508638 24.2888 1.31161 24.7734 4.59155 25.5986C9.20612 26.7595 12.1257 27.9668 12.5133 28.8092C11.675 29.1003 11.0721 29.5191 11.0665 29.9245C11.0654 29.9998 11.319 30.0732 11.7792 30.1415C11.8137 31.1556 14.2346 32.3736 17.8891 33.0422C20.2451 33.4732 21.665 33.8669 21.0445 33.917C20.121 33.9916 20.1445 34.1684 21.1745 34.892C21.8665 35.378 24.4759 35.666 26.973 35.532C29.6839 35.3863 31.5043 35.6173 31.4908 36.1051C31.4629 37.1187 43.4957 37.6008 53.2303 36.9765C67.4354 36.0654 84.1462 33.2628 81.7919 33.917C79.9254 34.4355 79.2567 34.4376 82.8518 34.5007C85.2552 34.5428 75.2508 37.1638 75.4414 36.8431C75.6066 36.565 81.6023 34.6668 82.8518 34.5007C84.5988 34.8215 80.43 36.788 80.5934 36.9769C80.8043 37.2208 81.8206 34.478 82.8518 34.5007C85.2123 34.5527 84.6025 36.7272 81.7919 36.0946C81.5271 36.035 81.2682 35.9721 81.0247 35.909C84.7662 35.7466 90.481 35.7584 98.4823 35.9319C107.41 36.1254 112.299 35.9951 113.793 35.5149ZM14.6149 15.5449C12.3605 15.5272 10.1226 15.5464 8.10502 15.5999C8.0001 14.9714 8.32947 14.5054 8.84112 14.5624C9.35604 14.6198 11.7168 14.7775 14.0873 14.9126C15.1216 14.9716 15.8977 15.0317 16.4483 15.1054C15.629 15.1586 14.9554 15.3225 14.6149 15.5449ZM145.76 11.6979C145.763 11.4949 145.431 11.0885 145.023 10.7948C144.614 10.5012 144.274 10.6599 144.268 11.1475C144.261 11.6351 144.593 12.0415 145.005 12.0506C145.418 12.0597 145.758 11.901 145.76 11.6979ZM35.9957 2.11484C36.257 1.66001 36.1135 1.28001 35.6766 1.27039C35.2398 1.26078 34.8772 1.62964 34.8708 2.09008C34.8644 2.55053 35.0081 2.93053 35.19 2.93453C35.3718 2.93853 35.7344 2.56967 35.9957 2.11484ZM57.5647 1.96557C53.7515 1.72966 47.5084 1.59227 43.6911 1.66026C39.8737 1.72824 42.9936 1.92124 50.624 2.08916C58.2545 2.25709 61.3778 2.20146 57.5647 1.96557ZM23.4716 9.00673C23.4744 8.80369 23.8174 8.41215 24.2338 8.13666C24.6502 7.86117 24.9854 8.03473 24.9786 8.52234C24.9719 9.00995 24.6289 9.40149 24.2164 9.39241C23.8039 9.38333 23.4687 9.20978 23.4716 9.00673ZM133.435 4.25916C133.186 3.79311 133.34 3.41966 133.777 3.42927C134.214 3.43888 134.566 3.82347 134.56 4.28392C134.553 4.74436 134.399 5.11781 134.217 5.1138C134.035 5.1098 133.683 4.72521 133.435 4.25916ZM111.883 3.16094C115.7 3.09296 121.943 3.23035 125.757 3.46626C129.57 3.70216 126.446 3.75777 118.816 3.58985C111.186 3.42193 108.066 3.22891 111.883 3.16094ZM133.627 34.4265C134.558 34.2473 136.077 34.2807 137.002 34.5007C137.927 34.7207 137.166 34.8672 135.309 34.8264C133.453 34.7855 132.696 34.6056 133.627 34.4265Z" fill="#22333C"/>
</svg>
