<svg width="44" height="44" viewBox="0 0 44 44" fill="none" xmlns="http://www.w3.org/2000/svg">
<path d="M24.2906 33.9031L24.3536 34.4368C25.4022 43.3231 36.8915 46.183 41.9836 38.8253C46.1219 32.8457 42.462 24.6065 35.2508 23.6684L35.0501 23.6423C32.4979 23.3103 30.1776 21.9911 28.587 19.9678L25.2293 15.6966C24.3507 14.5789 23.6595 13.3257 23.1829 11.9862L21.6452 7.66474C18.7356 -0.512506 7.82673 -2.03221 2.79292 5.03844C-1.9331 11.6768 2.17301 20.9531 10.2645 21.9179L12.072 22.1334C14.7963 22.4582 17.3226 23.7214 19.217 25.706L21.616 28.2191C23.1001 29.7738 24.0387 31.7686 24.2906 33.9031Z" fill="white"/>
</svg>
