<svg width="48" height="38" viewBox="0 0 48 38" fill="none" xmlns="http://www.w3.org/2000/svg">
<path d="M28.6843 30.4112L28.8763 30.9131C32.0723 39.2708 43.9121 39.2256 47.0441 30.8437C49.5895 24.0318 44.0206 16.9419 36.7997 17.801L36.5986 17.825C34.043 18.129 31.47 17.4192 29.4318 15.8478L25.1291 12.5306C24.0031 11.6625 23.0257 10.6171 22.2351 9.43541L19.6845 5.62305C14.8582 -1.59083 3.90983 -0.388622 0.763909 7.70066C-2.18965 15.2953 4.06616 23.2813 12.1471 22.2321L13.9522 21.9977C16.673 21.6444 19.432 22.2494 21.7553 23.7088L24.6974 25.5568C26.5174 26.7 27.9167 28.4037 28.6843 30.4112Z" fill="white"/>
</svg>
