<svg width="45" height="43" viewBox="0 0 45 43" fill="none" xmlns="http://www.w3.org/2000/svg">
<path d="M34.4853 20.4249L35.0222 20.4023C43.9623 20.0272 47.681 8.78646 40.7284 3.15372C35.0782 -1.42396 26.5863 1.60383 25.1068 8.72365L25.0656 8.92185C24.542 11.4417 23.0515 13.6559 20.9139 15.0892L16.4015 18.1151C15.2207 18.9069 13.919 19.5016 12.5473 19.8758L8.12214 21.083C-0.25134 23.3673 -2.58982 34.1304 4.08086 39.6833C10.3437 44.8968 19.9034 41.5023 21.4759 33.5067L21.8272 31.7206C22.3567 29.0286 23.8068 26.6048 25.9287 24.8655L28.6157 22.663C30.2779 21.3004 32.3379 20.515 34.4853 20.4249Z" fill="white"/>
</svg>
