<svg width="39" height="48" viewBox="0 0 39 48" fill="none" xmlns="http://www.w3.org/2000/svg">
<path d="M31.2196 19.4602L31.7293 19.2897C40.2153 16.452 40.6735 4.62093 32.4323 1.13535C25.7348 -1.69735 18.4145 3.56501 18.9659 10.816L18.9813 11.0178C19.1764 13.5841 18.3578 16.1246 16.7011 18.0942L13.204 22.2519C12.2888 23.34 11.2028 24.272 9.98855 25.0117L6.07119 27.3979C-1.34138 31.9131 -0.605793 42.9026 7.34241 46.3897C14.8046 49.6635 23.0494 43.7529 22.3447 35.6347L22.1873 33.8212C21.95 31.0878 22.6718 28.3571 24.2286 26.098L26.2001 23.2371C27.4196 21.4673 29.1813 20.1418 31.2196 19.4602Z" fill="#ECE5D3"/>
</svg>
