<svg width="38" height="39" viewBox="0 0 38 39" fill="none" xmlns="http://www.w3.org/2000/svg">
<path d="M16.7636 26.1808C15.0225 27.6241 12.7552 29.0201 10.2933 28.9051C7.83063 28.7899 5.51088 27.7154 3.83048 25.9114C2.15008 24.1074 1.24254 21.7174 1.30207 19.2527C1.3616 16.7881 2.38348 14.4446 4.14901 12.7239C5.91454 11.0032 8.28347 10.0418 10.7488 10.0457H27.1198C32.3046 10.0457 36.627 14.1734 36.6933 19.3553C36.7099 20.6046 36.4782 21.8449 36.0116 23.004C35.5449 24.1631 34.8527 25.218 33.9751 26.1074C33.0975 26.9968 32.052 27.703 30.8992 28.185C29.7464 28.6671 28.5094 28.9154 27.2599 28.9155C24.9778 28.9155 22.8845 27.5371 21.2525 26.1882C20.6217 25.6655 19.8286 25.3789 19.0094 25.3775C18.1902 25.3762 17.3961 25.6602 16.7636 26.1808Z" stroke="#ECE5D3" stroke-width="2.35872" stroke-linecap="round" stroke-linejoin="round"/>
<path d="M11.9277 14.7631H26.0801" stroke="#ECE5D3" stroke-width="2.35872" stroke-linecap="round" stroke-linejoin="round"/>
</svg>
